<svg xmlns="http://www.w3.org/2000/svg" xmlns:xlink="http://www.w3.org/1999/xlink" xmlns:lucid="lucid" width="1360" height="1760"><g transform="translate(0 0)" lucid:page-tab-id="0_0"><path d="M436 749.67c0-2.76 2.24-5 5-5h159.33c2.76 0 5-2.24 5-5V729c0-2.76 1.6-3.42 3.54-1.46l34.26 34.26c1.95 1.95 1.95 5.12 0 7.07l-34.26 34.26c-1.95 1.95-3.54 1.3-3.54-1.46V791c0-2.76-2.24-5-5-5H441c-2.76 0-5-2.24-5-5z" stroke="#000" stroke-width="2" fill="#99d5ca" transform="matrix(6.123233995736766e-17,1,-1,6.123233995736766e-17,1306.6666666666665,224.00000000000006)" filter="url(#a)"/><path d="M200 205c0-2.76 2.24-5 5-5h210c2.76 0 5-2.24 5-5v-10c0-2.76 1.58-3.42 3.54-1.46l32.92 32.92c1.96 1.96 1.96 5.12 0 7.08l-32.92 32.92c-1.96 1.96-3.54 1.3-3.54-1.46v-10c0-2.76-2.24-5-5-5H205c-2.76 0-5-2.24-5-5z" stroke="#000" stroke-width="2" fill="#d1bcd2" filter="url(#b)"/><g filter="url(#c)"><path d="M604 160c8.84 0 16 26.86 16 60s-7.16 60-16 60H476c-8.84 0-16-26.86-16-60s7.16-60 16-60z" stroke="#000" stroke-width="2" fill="#d1bcd2"/><path d="M604 280c-8.84 0-16-26.86-16-60s7.16-60 16-60" stroke="#000" stroke-width="2" fill="none"/><use xlink:href="#d" transform="matrix(1,0,0,1,476,160) translate(5.549999999999997 52.8)"/><use xlink:href="#e" transform="matrix(1,0,0,1,476,160) translate(33.5 52.8)"/><use xlink:href="#f" transform="matrix(1,0,0,1,476,160) translate(21.124999999999996 74.4)"/></g><g filter="url(#g)"><path d="M260 185c0-2.76 2.24-5 5-5h110c2.76 0 5 2.24 5 5v70c0 2.76-2.24 5-5 5H265c-2.76 0-5-2.24-5-5z" stroke="#000" stroke-width="2" fill="#c7e8ac"/><use xlink:href="#h" transform="matrix(1,0,0,1,280,180) translate(16.025 32.8)"/><use xlink:href="#i" transform="matrix(1,0,0,1,280,180) translate(-4.450000000000003 54.4)"/></g><path d="M620 205c0-2.76 2.24-5 5-5h210c2.76 0 5-2.24 5-5v-10c0-2.76 1.58-3.42 3.54-1.46l32.92 32.92c1.96 1.96 1.96 5.12 0 7.08l-32.92 32.92c-1.96 1.96-3.54 1.3-3.54-1.46v-10c0-2.76-2.24-5-5-5H625c-2.76 0-5-2.24-5-5z" stroke="#000" stroke-width="2" fill="#d1bcd2" filter="url(#b)"/><path d="M152 236c-6.63 0-12-7.16-12-16 0-7.07 3.25-13.03 8.3-15.22C148 184 168 180 176 188c4-12 24-8 24 4 12-4 24 12 16 32 8 16 0 36-16 28-4 10.4-20 10.4-24 0-8 8-24 4-24-16z" stroke="#000" stroke-width="2" fill="#d1bcd2" filter="url(#j)"/><g filter="url(#k)"><path d="M716.46 163.54c1.96-1.96 5.12-1.96 7.08 0l52.92 52.92c1.96 1.96 1.96 5.12 0 7.08l-52.92 52.92c-1.96 1.96-5.12 1.96-7.08 0l-52.92-52.92c-1.96-1.96-1.96-5.12 0-7.08z" fill="#ffbbb1"/><path d="M741.18 181.18l17.64 17.64m8.82 8.82l8.82 8.82 1.2 1.9.24 2.14-.68 2.07-.76.97-8.82 8.82m-8.82 8.82l-17.64 17.64m-8.82 8.82l-8.82 8.82-1.9 1.2-2.14.24-2.07-.68-.97-.76-8.82-8.82m-8.82-8.82l-17.64-17.64m-8.82-8.82l-8.82-8.82-1.2-1.9-.24-2.14.68-2.07.76-.97 8.82-8.82m8.82-8.82l17.64-17.64m8.82-8.82l8.82-8.82 1.9-1.2 2.14-.24 2.07.68.97.76 8.82 8.82" stroke="#000" stroke-width="2" fill="none"/><use xlink:href="#l" transform="matrix(1,0,0,1,660,160) translate(38.5 63.6)"/></g><path d="M892 236c-6.63 0-12-7.16-12-16 0-7.07 3.25-13.03 8.3-15.22C888 184 908 180 916 188c4-12 24-8 24 4 12-4 24 12 16 32 8 16 0 36-16 28-4 10.4-20 10.4-24 0-8 8-24 4-24-16z" stroke="#000" stroke-width="2" fill="#d1bcd2" filter="url(#j)"/><g filter="url(#k)"><path d="M600 648c0 6.63-26.86 12-60 12s-60-5.37-60-12v-96c0-6.63 26.86-12 60-12s60 5.37 60 12z" stroke="#000" stroke-width="2" fill="#99d5ca"/><path d="M600 552c0 6.63-26.86 12-60 12s-60-5.37-60-12" stroke="#000" stroke-width="2" fill="none"/><use xlink:href="#m" transform="matrix(1,0,0,1,490,564) translate(32.025 34.8)"/><use xlink:href="#n" transform="matrix(1,0,0,1,490,564) translate(26.099999999999998 56.4)"/></g><path d="M600 585c0-2.76 2.24-5 5-5h222c2.76 0 5-2.24 5-5v-10c0-2.76 1.58-3.42 3.54-1.46l32.92 32.92c1.96 1.96 1.96 5.12 0 7.08l-32.92 32.92c-1.96 1.96-3.54 1.3-3.54-1.46v-10c0-2.76-2.24-5-5-5H605c-2.76 0-5-2.24-5-5z" stroke="#000" stroke-width="2" fill="#99d5ca" transform="matrix(-1,1.2246467991473532e-16,-1.2246467991473532e-16,-1,1472,1200)" filter="url(#o)"/><g filter="url(#k)"><path d="M746.46 543.54c1.96-1.96 5.12-1.96 7.08 0l52.92 52.92c1.96 1.96 1.96 5.12 0 7.08l-52.92 52.92c-1.96 1.96-5.12 1.96-7.08 0l-52.92-52.92c-1.96-1.96-1.96-5.12 0-7.08z" stroke="#000" stroke-width="2" fill="#ffbbb1"/><use xlink:href="#p" transform="matrix(1,0,0,1,690,540) translate(22.025 63.6)"/></g><path d="M884 616c-6.63 0-12-7.16-12-16 0-7.07 3.25-13.03 8.3-15.22C880 564 900 560 908 568c4-12 24-8 24 4 12-4 24 12 16 32 8 16 0 36-16 28-4 10.4-20 10.4-24 0-8 8-24 4-24-16z" stroke="#000" stroke-width="2" fill="#99d5ca" filter="url(#j)"/><path d="M220 585c0-2.76 2.24-5 5-5h210c2.76 0 5-2.24 5-5v-10c0-2.76 1.58-3.42 3.54-1.46l32.92 32.92c1.96 1.96 1.96 5.12 0 7.08l-32.92 32.92c-1.96 1.96-3.54 1.3-3.54-1.46v-10c0-2.76-2.24-5-5-5H225c-2.76 0-5-2.24-5-5z" stroke="#000" stroke-width="2" fill="#99d5ca" filter="url(#b)"/><path d="M152 616c-6.63 0-12-7.16-12-16 0-7.07 3.25-13.03 8.3-15.22C148 564 168 560 176 568c4-12 24-8 24 4 12-4 24 12 16 32 8 16 0 36-16 28-4 10.4-20 10.4-24 0-8 8-24 4-24-16z" stroke="#000" stroke-width="2" fill="#99d5ca" filter="url(#j)"/><g filter="url(#k)"><path d="M326.46 543.54c1.96-1.96 5.12-1.96 7.08 0l52.92 52.92c1.96 1.96 1.96 5.12 0 7.08l-52.92 52.92c-1.96 1.96-5.12 1.96-7.08 0l-52.92-52.92c-1.96-1.96-1.96-5.12 0-7.08z" stroke="#000" stroke-width="2" fill="#ffbbb1"/><use xlink:href="#q" transform="matrix(1,0,0,1,270,540) translate(39 63.6)"/></g><g filter="url(#k)"><path d="M620 1130.15c0 6.63-26.86 12-60 12s-60-5.37-60-12v-96c0-6.62 26.86-12 60-12s60 5.38 60 12z" stroke="#000" stroke-width="2" fill="#ffeca9"/><path d="M620 1034.15c0 6.63-26.86 12-60 12s-60-5.37-60-12" stroke="#000" stroke-width="2" fill="none"/><use xlink:href="#r" transform="matrix(1,0,0,1,510,1046.1534419877712) translate(30.049999999999997 34.8)"/><use xlink:href="#s" transform="matrix(1,0,0,1,510,1046.1534419877712) translate(23.074999999999996 56.4)"/></g><path d="M240 1067.15c0-2.76 2.24-5 5-5h210c2.76 0 5-2.24 5-5v-10c0-2.76 1.58-3.4 3.54-1.46l32.92 32.92c1.96 1.95 1.96 5.12 0 7.07l-32.92 32.92c-1.96 1.95-3.54 1.3-3.54-1.47v-10c0-2.76-2.24-5-5-5H245c-2.76 0-5-2.24-5-5z" stroke="#000" stroke-width="2" fill="#ffeca9" filter="url(#b)"/><g filter="url(#k)"><path d="M346.46 1025.7c1.96-1.96 5.12-1.96 7.08 0l52.92 52.92c1.96 1.95 1.96 5.12 0 7.07l-52.92 52.92c-1.96 1.95-5.12 1.95-7.08 0l-52.92-52.93c-1.96-1.96-1.96-5.13 0-7.08z" fill="#ffbbb1"/><path d="M371.18 1043.33l17.64 17.64m8.82 8.83l8.82 8.82 1.2 1.9.24 2.14-.68 2.07-.76.96-8.82 8.8m-8.82 8.83l-17.64 17.64m-8.82 8.83l-8.82 8.82-1.9 1.2-2.14.24-2.07-.7-.97-.74-8.82-8.82m-8.82-8.83l-17.64-17.64m-8.82-8.82l-8.82-8.8-1.2-1.9-.24-2.15.68-2.07.76-.96 8.82-8.82m8.82-8.83l17.64-17.64m8.82-8.82l8.82-8.8 1.9-1.2 2.14-.25 2.07.7.97.74 8.82 8.8" stroke="#000" stroke-width="2" fill="none"/><use xlink:href="#t" transform="matrix(1,0,0,1,290,1022.1534419877712) translate(43.05 63.6)"/></g><path d="M172 1098.15c-6.63 0-12-7.16-12-16 0-7.07 3.25-13.03 8.3-15.2-.3-20.8 19.7-24.8 27.7-16.8 4-12 24-8 24 4 12-4 24 12 16 32 8 16 0 36-16 28-4 10.4-20 10.4-24 0-8 8-24 4-24-16z" stroke="#000" stroke-width="2" fill="#ffeca9" filter="url(#j)"/><path d="M349.15 1005.06l-2 .2-.97-9.6 2-.2zm-1.95-19.18l-2 .2-1.95-19.18 2-.2zm-2.98-29.24l.05.46-2 .2-.04-.5-1.1-18.78 2-.12zm-2.7-46.1l1.04 17.74-2 .1-1.04-17.78v-1.5l2-.02zm-.05-11.1h-2l-.07-19.27h2zm-.1-28.92h-2l-.08-19.28h2zm-.12-28.92h-2l-.07-19.28h2zm-.43-45.84h-2l-.03-2.35h2zm-.34-24.2l.17 12.2h-2l-.17-12.14-.4-7.07 1.98-.12zm-.98-16.75l-2 .13-1.12-19.25 2-.12zm-1.73-29.44l.04.58-2 .1-.02-.52-1.9-18.6 2-.2zm-2.87-28.24l-2 .2-1.94-19.18 2-.2zm-2.93-28.77l-2 .2-.96-9.6 2-.2zM329.5 657.9l1.4-.16.1 1.02-2 .2-.12-1.26zM349.67 1020.08l-6.05-13.72 9.22-.94z"/><path d="M350 1023.3l-7.85-17.8 11.96-1.2zm-4.9-16.1l4.24 9.66 2.23-10.3z"/><use xlink:href="#u" transform="matrix(1,0,0,1,306.49750598152474,795.7613288868879) translate(0 14.4)"/><use xlink:href="#v" transform="matrix(1,0,0,1,306.49750598152474,795.7613288868879) translate(47 14.4)"/><g filter="url(#k)"><path d="M536.46 683.54c1.96-1.96 5.12-1.96 7.08 0l52.92 52.92c1.96 1.96 1.96 5.12 0 7.08l-52.92 52.92c-1.96 1.96-5.12 1.96-7.08 0l-52.92-52.92c-1.96-1.96-1.96-5.12 0-7.08z" fill="#ffbbb1"/><path d="M561.18 701.18l17.64 17.64m8.82 8.82l8.82 8.82 1.2 1.9.24 2.14-.68 2.07-.76.97-8.82 8.82m-8.82 8.82l-17.64 17.64m-8.82 8.82l-8.82 8.82-1.9 1.2-2.14.24-2.07-.68-.97-.76-8.82-8.82m-8.82-8.82l-17.64-17.64m-8.82-8.82l-8.82-8.82-1.2-1.9-.24-2.14.68-2.07.76-.97 8.82-8.82m8.82-8.82l17.64-17.64m8.82-8.82l8.82-8.82 1.9-1.2 2.14-.24 2.07.68.97.76 8.82 8.82" stroke="#000" stroke-width="2" fill="none"/><use xlink:href="#w" transform="matrix(1,0,0,1,480,680) translate(22.6 63.6)"/></g><path d="M512 927c-6.63 0-12-7.16-12-16 0-7.07 3.25-13.03 8.3-15.22C508 875 528 871 536 879c4-12 24-8 24 4 12-4 24 12 16 32 8 16 0 36-16 28-4 10.4-20 10.4-24 0-8 8-24 4-24-16z" stroke="#000" stroke-width="2" fill="#99d5ca" filter="url(#j)"/><path d="M620 1067c0-2.76 2.24-5 5-5h210c2.76 0 5-2.24 5-5v-10c0-2.76 1.58-3.42 3.54-1.46l32.92 32.92c1.96 1.96 1.96 5.12 0 7.08l-32.92 32.92c-1.96 1.96-3.54 1.3-3.54-1.46v-10c0-2.76-2.24-5-5-5H625c-2.76 0-5-2.24-5-5z" stroke="#000" stroke-width="2" fill="#ffeca9" filter="url(#b)"/><path d="M751 541l-2 .3-1.46-10.16 1.97-.28zm-2.96-20.3l-1.98.3-2.95-20.3 2-.28zm-4.43-30.43l-1.96.3-2.95-20.3 1.96-.3zm-4.5-30.44l-1.98.32-3.28-20.25 1.98-.32zm-4.92-30.37l-1.98.32-1.37-8.48h2.02zm-4.54-30.4l-2 .27L725 379l1.98-.26zm-3.95-30.45l-2 .2-1.78-20.44 2-.18zm-2.9-33.1l.22 2.47-2 .17-.2-2.5-.8-18.02 2-.1zm-1.54-34.8l.3 6.6-2 .08-.3-6.64-.05-3.64 2-.03z"/><path d="M751.18 542.32l-.68-.22-1.35.15-.14-.96 2-.3zM724.84 296.3l-9.27.1 4.47-14.3z"/><path d="M726.23 297.28l-12.02.14 5.8-18.57zm-9.3-1.9l6.52-.07-3.37-9.98z"/><use xlink:href="#x" transform="matrix(1,0,0,1,680.6725711751784,399.6964047020278) translate(0 14.4)"/><use xlink:href="#v" transform="matrix(1,0,0,1,680.6725711751784,399.6964047020278) translate(78.95 14.4)"/><g filter="url(#k)"><path d="M732.46 1025.54c1.96-1.96 5.12-1.96 7.08 0l52.92 52.92c1.96 1.96 1.96 5.12 0 7.08l-52.92 52.92c-1.96 1.96-5.12 1.96-7.08 0l-52.92-52.92c-1.96-1.96-1.96-5.12 0-7.08z" stroke="#000" stroke-width="2" fill="#ffbbb1"/><use xlink:href="#y" transform="matrix(1,0,0,1,676,1022) translate(41.025 63.6)"/></g><path d="M737 1023.03l-2 .23-1.14-10.08 2-.22zm-2.3-20.15l-1.98.23-2.3-20.14 2-.23zm-3.43-30.22l-2 .23-2.28-20.16 1.98-.23zm-3.44-30.22l-2 .22-2.28-20.15 2-.2zm-3.44-30.23l-2 .24-2.28-20.15 1.98-.24zm-3.62-31.76l.18 1.55-2 .22-.16-1.48-.47-2.57h2.03zm-7.9-38.9l2.4 10.46-1.96.45-2.38-10.42-2.5-9.2 1.92-.54zm-10.28-32.8l3.3 9 1.52 4.8-1.9.6-1.52-4.76-3.26-8.9-2.18-5.28 1.85-.76zm-15.05-29.85l2.87 4.57 2.93 5.14 2.84 5.53-1.78.9-2.83-5.47-2.9-5.06-2.83-4.5-1.6-2.35 1.65-1.13zm-21.92-24.13l2.72 2.17 2.7 2.36 2.7 2.57 2.72 2.8 2.73 3.06.53.65-1.54 1.27-.52-.62-2.68-3-2.65-2.74-2.64-2.52-2.64-2.3-2.65-2.13-.67-.5 1.2-1.6zm-26.45-13.3l3.25 1 3.14 1.1 3.05 1.23 2.97 1.34 2.9 1.46 1.83 1.03-.97 1.75-1.8-1-2.84-1.43-2.9-1.3-2.96-1.2-3.06-1.08-3.16-.97-1.8-.48.5-1.93zm-18.48-3.15l4.07.36 2.5.33-.25 2-2.47-.33-3.98-.36-3.57-.15.1-2z"/><path d="M737.14 1024.3l-.64-.2-1.38.16-.1-1 1.97-.23zM616.55 743.8l-14.47-3.95 14.04-5.3z"/><path d="M617.6 745.14L598.86 740l18.2-6.87zm-12.28-5.44l10.17 2.78-.32-6.5z"/><use xlink:href="#z" transform="matrix(1,0,0,1,667.4795271602358,856.5669000152656) translate(0 14.4)"/><use xlink:href="#v" transform="matrix(1,0,0,1,667.4795271602358,856.5669000152656) translate(79.8 14.4)"/><path d="M892 1098c-6.63 0-12-7.16-12-16 0-7.07 3.25-13.03 8.3-15.22C888 1046 908 1042 916 1050c4-12 24-8 24 4 12-4 24 12 16 32 8 16 0 36-16 28-4 10.4-20 10.4-24 0-8 8-24 4-24-16z" stroke="#000" stroke-width="2" fill="#ffeca9" filter="url(#j)"/><path d="M463 445c0-2.76 2.24-5 5-5h110c2.76 0 5-2.24 5-5v-10c0-2.76 1.58-3.42 3.54-1.46l32.92 32.92c1.96 1.96 1.96 5.12 0 7.08l-32.92 32.92c-1.96 1.96-3.54 1.3-3.54-1.46v-10c0-2.76-2.24-5-5-5H468c-2.76 0-5-2.24-5-5z" stroke="#000" stroke-width="2" fill="#99d5ca" transform="matrix(-1.8369701987210297e-16,-1,1,-1.8369701987210297e-16,83.00000000000011,1003.0000000000001)" filter="url(#A)"/><path d="M512 356c-6.63 0-12-7.16-12-16 0-7.07 3.25-13.03 8.3-15.22C508 304 528 300 536 308c4-12 24-8 24 4 12-4 24 12 16 32 8 16 0 36-16 28-4 10.4-20 10.4-24 0-8 8-24 4-24-16z" stroke="#000" stroke-width="2" fill="#99d5ca" filter="url(#j)"/><g filter="url(#g)"><path d="M481 445c0-2.76 2.24-5 5-5h110c2.76 0 5 2.24 5 5v70c0 2.76-2.24 5-5 5H486c-2.76 0-5-2.24-5-5z" fill="#c7e8ac"/><path d="M504.33 440h18.34m9.16 0h18.34m9.16 0h18.34m9.16 0H596l2.95.96 1.8 2.46.25 1.58v11.67m0 11.66v23.34m0 11.66V515l-.96 2.95-2.46 1.8-1.58.25h-9.17m-9.16 0h-18.34m-9.16 0h-18.34m-9.16 0h-18.34m-9.16 0H486l-2.95-.96-1.8-2.46L481 515v-11.67m0-11.66v-23.34m0-11.66V445l.96-2.95 2.46-1.8L486 440h9.17" stroke="#000" stroke-width="2" fill="none"/><use xlink:href="#B" transform="matrix(1,0,0,1,501,440) translate(-6.425000000000004 32.8)"/><use xlink:href="#C" transform="matrix(1,0,0,1,501,440) translate(17.025 54.4)"/></g><path d="M452.6 476.47l5.7.97 3.63.46-.25 1.98-3.67-.46-5.8-.98-1-.22.42-1.95zm-26.36-7.92l5.03 2 5.13 1.78 5.05 1.52-.57 1.92-5.1-1.54-5.2-1.8-5.1-2.04-4.45-1.98.8-1.83zm-28.6-16.57l4.63 3.37 4.67 3.1 4.73 2.86.9.5-.98 1.75-.93-.5-4.8-2.9-4.74-3.16-4.7-3.43-2.4-1.9 1.24-1.57zM375 430.58l4.47 4.98 4.5 4.6 3.36 3.15-1.37 1.47-3.4-3.18-4.55-4.67-4.52-5.03-2.07-2.5 1.55-1.28zm-17.52-24.23l4.3 6.8 4.37 6.27.33.44-1.6 1.2-.35-.47-4.4-6.35-4.36-6.87-2.37-4.1 1.73-1zm-7.35-13.3l-1.77.93-1.06-2.03-.05-.1h2.25zm-16.1-40.4l3.46 10.66.3.83-1.9.7-.3-.86-3.5-10.73-2.4-8.62 1.93-.54zm-8.43-36.16l2.42 12.7 1.1 4.7-1.95.45-1.1-4.72-2.45-12.8-.47-3.23 1.98-.3zm-3.4-27.1l1.4 13.52-1.98.2-1.43-13.55-.48-7.46 2-.1zm-.98-17.9l-2 .05-.22-10.53 2-.04z"/><path d="M321 260.98l-2 .05-.02-1.03h2zM476.77 479.8l-14.52 3.76.56-9.25z"/><path d="M480 480l-18.83 4.87.73-12zm-16.67 2.25l10.2-2.64-9.8-3.86z"/><use xlink:href="#D" transform="matrix(1,0,0,1,297.8921955277424,370.24066822050276) translate(0 14.4)"/><use xlink:href="#E" transform="matrix(1,0,0,1,297.8921955277424,370.24066822050276) translate(32 14.4)"/><g filter="url(#F)" stroke="#000" stroke-width="2"><path d="M1232 660c3.3 0 6 13.43 6 30s-2.7 30-6 30h-48c-3.3 0-6-13.43-6-30s2.7-30 6-30z" fill="#fff"/><path d="M1232 720c-3.3 0-6-13.43-6-30s2.7-30 6-30" fill="none"/></g><g filter="url(#G)" stroke="#000" stroke-width="2"><path d="M1234 864c0 3.3-10.75 6-24 6s-24-2.7-24-6v-48c0-3.3 10.75-6 24-6s24 2.7 24 6z" fill="#fff"/><path d="M1234 816c0 3.3-10.75 6-24 6s-24-2.7-24-6" fill="none"/></g><path d="M1168 979.75c0-2.76 2.24-5 5-5h49.5c2.76 0 5-2.24 5-5v-.25c0-2.76 1.58-3.42 3.54-1.46l13.42 13.42c1.96 1.96 1.96 5.12 0 7.08l-13.42 13.42c-1.96 1.96-3.54 1.3-3.54-1.46v-.25c0-2.76-2.24-5-5-5H1173c-2.76 0-5-2.24-5-5z" stroke="#000" stroke-width="2" fill="#fff" filter="url(#H)"/><path d="M1202.46 383.54c1.96-1.96 5.12-1.96 7.08 0l22.92 22.92c1.96 1.96 1.96 5.12 0 7.08l-22.92 22.92c-1.96 1.96-5.12 1.96-7.08 0l-22.92-22.92c-1.96-1.96-1.96-5.12 0-7.08z" stroke="#000" stroke-width="2" fill="#fff" filter="url(#F)"/><path d="M1176 265c0-2.76 2.24-5 5-5h50c2.76 0 5 2.24 5 5v32c0 2.76-2.24 5-5 5h-50c-2.76 0-5-2.24-5-5z" stroke="#000" stroke-width="2" fill="#fff" filter="url(#I)"/><path d="M1152 550l2.74-.06 2.5-.17 2.34-.27 2.2-.35 2.1-.44 2.05-.5 2.02-.62 2.03-.72 2.1-.86 2.27-1.05 2.62-1.35 3.57-2.07 13.7-8.4 3-1.56 2.66-1.23 2.56-1.04 2.54-.9 2.57-.8 2.67-.67 2.8-.58 3.02-.48 3.27-.38 3.6-.25 4.03-.1 4.58.12 5.28.36 6.23.72 1.06.16" fill="none"/><path d="M1152 550l2.74-.06 2.5-.17 2.34-.27 2.2-.35 1-.2m10.26-3.4l1.3-.6 2.63-1.35 3.57-2.07 11.2-6.88m9.65-4.92l1.06-.43 2.54-.9 2.57-.8 2.67-.67 2.8-.58 3.02-.48 3.27-.38 3.17-.22m10.83.1l3.5.25 6.22.72 1.06.16" stroke="#000" stroke-width="2" fill="none"/><path d="M1258.82 529.38l-14.9 1.82 1.8-9.1z" stroke="#000" stroke-width="2"/><g filter="url(#J)"><path d="M1086 445c0-2.76 2.24-5 5-5h230c2.76 0 5 2.24 5 5v50c0 2.76-2.24 5-5 5h-230c-2.76 0-5-2.24-5-5z" fill="none"/><use xlink:href="#K" transform="matrix(1,0,0,1,1086,440) translate(73.57499999999999 33.6)"/><use xlink:href="#L" transform="matrix(1,0,0,1,1086,440) translate(116.475 33.6)"/></g><g filter="url(#J)"><path d="M1090 725c0-2.76 2.24-5 5-5h230c2.76 0 5 2.24 5 5v50c0 2.76-2.24 5-5 5h-230c-2.76 0-5-2.24-5-5z" fill="none"/><use xlink:href="#M" transform="matrix(1,0,0,1,1090,720) translate(42.57499999999999 33.6)"/><use xlink:href="#N" transform="matrix(1,0,0,1,1090,720) translate(143.425 33.6)"/></g><g filter="url(#J)"><path d="M1086 875c0-2.76 2.24-5 5-5h230c2.76 0 5 2.24 5 5v50c0 2.76-2.24 5-5 5h-230c-2.76 0-5-2.24-5-5z" fill="none"/><use xlink:href="#O" transform="matrix(1,0,0,1,1086,870) translate(56.074999999999996 33.6)"/><use xlink:href="#P" transform="matrix(1,0,0,1,1086,870) translate(129.925 33.6)"/></g><g filter="url(#J)"><path d="M1090 1007c0-2.76 2.24-5 5-5h230c2.76 0 5 2.24 5 5v50c0 2.76-2.24 5-5 5h-230c-2.76 0-5-2.24-5-5z" fill="none"/><use xlink:href="#Q" transform="matrix(1,0,0,1,1090,1002) translate(50.625 33.6)"/><use xlink:href="#R" transform="matrix(1,0,0,1,1090,1002) translate(142.525 33.6)"/></g><g filter="url(#J)"><path d="M1080 307c0-2.76 2.24-5 5-5h230c2.76 0 5 2.24 5 5v50c0 2.76-2.24 5-5 5h-230c-2.76 0-5-2.24-5-5z" fill="none"/><use xlink:href="#S" transform="matrix(1,0,0,1,1080,302) translate(28.099999999999994 33.6)"/><use xlink:href="#T" transform="matrix(1,0,0,1,1080,302) translate(120.05 33.6)"/></g><g filter="url(#J)"><path d="M1086 565c0-2.76 2.24-5 5-5h230c2.76 0 5 2.24 5 5v50c0 2.76-2.24 5-5 5h-230c-2.76 0-5-2.24-5-5z" fill="none"/><use xlink:href="#U" transform="matrix(1,0,0,1,1086,560) translate(39.07499999999999 33.6)"/><use xlink:href="#V" transform="matrix(1,0,0,1,1086,560) translate(99.975 33.6)"/></g><defs><filter id="a" filterUnits="objectBoundingBox" x="-.06" y="-.01" width="1.12" height="1.05"><feOffset result="offOut" in="SourceAlpha" dy="3"/><feGaussianBlur result="blurOut" in="offOut" stdDeviation="2.5"/><feColorMatrix result="colorOut" in="blurOut" values="0 0 0 0 0 0 0 0 0 0 0 0 0 0 0 0 0 0 0.5019607843137255 0"/><feBlend in="SourceGraphic" in2="colorOut"/></filter><filter id="b" filterUnits="objectBoundingBox" x="-.02" y="-.03" width="1.04" height="1.13"><feOffset result="offOut" in="SourceAlpha" dy="3"/><feGaussianBlur result="blurOut" in="offOut" stdDeviation="2.5"/><feColorMatrix result="colorOut" in="blurOut" values="0 0 0 0 0 0 0 0 0 0 0 0 0 0 0 0 0 0 0.5019607843137255 0"/><feBlend in="SourceGraphic" in2="colorOut"/></filter><path d="M205 0l-28-72H64L36 0H1l101-248h38L239 0h-34zm-38-99l-47-123c-12 45-31 82-46 123h93" id="W"/><path d="M114-163C36-179 61-72 57 0H25l-1-190h30c1 12-1 29 2 39 6-27 23-49 58-41v29" id="X"/><path d="M59-47c-2 24 18 29 38 22v24C64 9 27 4 27-40v-127H5v-23h24l9-43h21v43h35v23H59v120" id="Y"/><g id="d"><use transform="matrix(0.05,0,0,0.05,0,0)" xlink:href="#W"/><use transform="matrix(0.05,0,0,0.05,12,0)" xlink:href="#X"/><use transform="matrix(0.05,0,0,0.05,17.95,0)" xlink:href="#Y"/></g><path d="M127-220V0H93v-220H8v-28h204v28h-85" id="Z"/><path d="M100-194c62-1 85 37 85 99 1 63-27 99-86 99S16-35 15-95c0-66 28-99 85-99zM99-20c44 1 53-31 53-75 0-43-8-75-51-75s-53 32-53 75 10 74 51 75" id="aa"/><path d="M143 0L79-87 56-68V0H24v-261h32v163l83-92h37l-77 82L181 0h-38" id="ab"/><path d="M100-194c63 0 86 42 84 106H49c0 40 14 67 53 68 26 1 43-12 49-29l28 8c-11 28-37 45-77 45C44 4 14-33 15-96c1-61 26-98 85-98zm52 81c6-60-76-77-97-28-3 7-6 17-6 28h103" id="ac"/><path d="M117-194c89-4 53 116 60 194h-32v-121c0-31-8-49-39-48C34-167 62-67 57 0H25l-1-190h30c1 10-1 24 2 32 11-22 29-35 61-36" id="ad"/><path d="M135-143c-3-34-86-38-87 0 15 53 115 12 119 90S17 21 10-45l28-5c4 36 97 45 98 0-10-56-113-15-118-90-4-57 82-63 122-42 12 7 21 19 24 35" id="ae"/><g id="e"><use transform="matrix(0.05,0,0,0.05,0,0)" xlink:href="#Z"/><use transform="matrix(0.05,0,0,0.05,8.950000000000001,0)" xlink:href="#aa"/><use transform="matrix(0.05,0,0,0.05,18.950000000000003,0)" xlink:href="#ab"/><use transform="matrix(0.05,0,0,0.05,27.950000000000003,0)" xlink:href="#ac"/><use transform="matrix(0.05,0,0,0.05,37.95,0)" xlink:href="#ad"/><use transform="matrix(0.05,0,0,0.05,47.95,0)" xlink:href="#ae"/></g><path d="M87 75C49 33 22-17 22-94c0-76 28-126 65-167h31c-38 41-64 92-64 168S80 34 118 75H87" id="af"/><path d="M190 0L58-211 59 0H30v-248h39L202-35l-2-213h31V0h-41" id="ag"/><path d="M63-220v92h138v28H63V0H30v-248h175v28H63" id="ah"/><path d="M33-261c38 41 65 92 65 168S71 34 33 75H2C39 34 66-17 66-93S39-220 2-261h31" id="ai"/><g id="f"><use transform="matrix(0.05,0,0,0.05,0,0)" xlink:href="#af"/><use transform="matrix(0.05,0,0,0.05,5.95,0)" xlink:href="#ag"/><use transform="matrix(0.05,0,0,0.05,18.900000000000002,0)" xlink:href="#ah"/><use transform="matrix(0.05,0,0,0.05,29.85,0)" xlink:href="#Z"/><use transform="matrix(0.05,0,0,0.05,38.800000000000004,0)" xlink:href="#ae"/><use transform="matrix(0.05,0,0,0.05,47.800000000000004,0)" xlink:href="#ai"/></g><filter id="c" filterUnits="objectBoundingBox" x="-.03" y="-.02" width="1.06" height="1.08"><feOffset result="offOut" in="SourceAlpha" dy="3"/><feGaussianBlur result="blurOut" in="offOut" stdDeviation="2.5"/><feColorMatrix result="colorOut" in="blurOut" values="0 0 0 0 0 0 0 0 0 0 0 0 0 0 0 0 0 0 0.5019607843137255 0"/><feBlend in="SourceGraphic" in2="colorOut"/></filter><g id="h"><use transform="matrix(0.05,0,0,0.05,0,0)" xlink:href="#Z"/><use transform="matrix(0.05,0,0,0.05,8.950000000000001,0)" xlink:href="#aa"/><use transform="matrix(0.05,0,0,0.05,18.950000000000003,0)" xlink:href="#ab"/><use transform="matrix(0.05,0,0,0.05,27.950000000000003,0)" xlink:href="#ac"/><use transform="matrix(0.05,0,0,0.05,37.95,0)" xlink:href="#ad"/></g><path d="M143 4C61 4 22-44 18-125c-5-107 100-154 193-111 17 8 29 25 37 43l-32 9c-13-25-37-40-76-40-61 0-88 39-88 99 0 61 29 100 91 101 35 0 62-11 79-27v-45h-74v-28h105v86C228-13 192 4 143 4" id="aj"/><path d="M141-36C126-15 110 5 73 4 37 3 15-17 15-53c-1-64 63-63 125-63 3-35-9-54-41-54-24 1-41 7-42 31l-33-3c5-37 33-52 76-52 45 0 72 20 72 64v82c-1 20 7 32 28 27v20c-31 9-61-2-59-35zM48-53c0 20 12 33 32 33 41-3 63-29 60-74-43 2-92-5-92 41" id="ak"/><path d="M24-231v-30h32v30H24zM24 0v-190h32V0H24" id="al"/><g id="i"><use transform="matrix(0.05,0,0,0.05,0,0)" xlink:href="#aj"/><use transform="matrix(0.05,0,0,0.05,14,0)" xlink:href="#ac"/><use transform="matrix(0.05,0,0,0.05,24,0)" xlink:href="#ad"/><use transform="matrix(0.05,0,0,0.05,34,0)" xlink:href="#ac"/><use transform="matrix(0.05,0,0,0.05,44,0)" xlink:href="#X"/><use transform="matrix(0.05,0,0,0.05,49.95,0)" xlink:href="#ak"/><use transform="matrix(0.05,0,0,0.05,59.95,0)" xlink:href="#Y"/><use transform="matrix(0.05,0,0,0.05,64.95,0)" xlink:href="#al"/><use transform="matrix(0.05,0,0,0.05,68.9,0)" xlink:href="#aa"/><use transform="matrix(0.05,0,0,0.05,78.9,0)" xlink:href="#ad"/></g><filter id="g" filterUnits="objectBoundingBox" x="-.04" y="-.03" width="1.08" height="1.13"><feOffset result="offOut" in="SourceAlpha" dy="3"/><feGaussianBlur result="blurOut" in="offOut" stdDeviation="2.5"/><feColorMatrix result="colorOut" in="blurOut" values="0 0 0 0 0 0 0 0 0 0 0 0 0 0 0 0 0 0 0.5019607843137255 0"/><feBlend in="SourceGraphic" in2="colorOut"/></filter><filter id="j" filterUnits="objectBoundingBox" x="-.06" y="-.03" width="1.13" height="1.13"><feOffset result="offOut" in="SourceAlpha" dy="3"/><feGaussianBlur result="blurOut" in="offOut" stdDeviation="2.5"/><feColorMatrix result="colorOut" in="blurOut" values="0 0 0 0 0 0 0 0 0 0 0 0 0 0 0 0 0 0 0.5019607843137255 0"/><feBlend in="SourceGraphic" in2="colorOut"/></filter><path d="M33 0v-248h34V0H33" id="am"/><path d="M84 4C-5 8 30-112 23-190h32v120c0 31 7 50 39 49 72-2 45-101 50-169h31l1 190h-30c-1-10 1-25-2-33-11 22-28 36-60 37" id="an"/><g id="l"><use transform="matrix(0.05,0,0,0.05,0,0)" xlink:href="#am"/><use transform="matrix(0.05,0,0,0.05,5,0)" xlink:href="#ae"/><use transform="matrix(0.05,0,0,0.05,14,0)" xlink:href="#ae"/><use transform="matrix(0.05,0,0,0.05,23,0)" xlink:href="#an"/><use transform="matrix(0.05,0,0,0.05,33,0)" xlink:href="#ac"/></g><filter id="k" filterUnits="objectBoundingBox" x="-.04" y="-.02" width="1.08" height="1.08"><feOffset result="offOut" in="SourceAlpha" dy="3"/><feGaussianBlur result="blurOut" in="offOut" stdDeviation="2.5"/><feColorMatrix result="colorOut" in="blurOut" values="0 0 0 0 0 0 0 0 0 0 0 0 0 0 0 0 0 0 0.5019607843137255 0"/><feBlend in="SourceGraphic" in2="colorOut"/></filter><path d="M30-248c87 1 191-15 191 75 0 78-77 80-158 76V0H30v-248zm33 125c57 0 124 11 124-50 0-59-68-47-124-48v98" id="ao"/><path d="M24 0v-261h32V0H24" id="ap"/><g id="m"><use transform="matrix(0.05,0,0,0.05,0,0)" xlink:href="#ao"/><use transform="matrix(0.05,0,0,0.05,12,0)" xlink:href="#aa"/><use transform="matrix(0.05,0,0,0.05,22,0)" xlink:href="#aa"/><use transform="matrix(0.05,0,0,0.05,32,0)" xlink:href="#ap"/></g><path d="M30 0v-248h187v28H63v79h144v27H63v87h162V0H30" id="aq"/><path d="M197 0v-115H63V0H30v-248h33v105h134v-105h34V0h-34" id="ar"/><g id="n"><use transform="matrix(0.05,0,0,0.05,0,0)" xlink:href="#af"/><use transform="matrix(0.05,0,0,0.05,5.95,0)" xlink:href="#aq"/><use transform="matrix(0.05,0,0,0.05,17.95,0)" xlink:href="#Z"/><use transform="matrix(0.05,0,0,0.05,28.899999999999995,0)" xlink:href="#ar"/><use transform="matrix(0.05,0,0,0.05,41.85,0)" xlink:href="#ai"/></g><filter id="o" filterUnits="objectBoundingBox" x="-.02" y="-.03" width="1.04" height="1.13"><feOffset result="offOut" in="SourceAlpha" dy="3"/><feGaussianBlur result="blurOut" in="offOut" stdDeviation="2.5"/><feColorMatrix result="colorOut" in="blurOut" values="0 0 0 0 0 0 0 0 0 0 0 0 0 0 0 0 0 0 0.5019607843137255 0"/><feBlend in="SourceGraphic" in2="colorOut"/></filter><path d="M96-169c-40 0-48 33-48 73s9 75 48 75c24 0 41-14 43-38l32 2c-6 37-31 61-74 61-59 0-76-41-82-99-10-93 101-131 147-64 4 7 5 14 7 22l-32 3c-4-21-16-35-41-35" id="as"/><path d="M106-169C34-169 62-67 57 0H25v-261h32l-1 103c12-21 28-36 61-36 89 0 53 116 60 194h-32v-121c2-32-8-49-39-48" id="at"/><g id="p"><use transform="matrix(0.05,0,0,0.05,0,0)" xlink:href="#ao"/><use transform="matrix(0.05,0,0,0.05,12,0)" xlink:href="#an"/><use transform="matrix(0.05,0,0,0.05,22,0)" xlink:href="#X"/><use transform="matrix(0.05,0,0,0.05,27.950000000000003,0)" xlink:href="#as"/><use transform="matrix(0.05,0,0,0.05,36.95,0)" xlink:href="#at"/><use transform="matrix(0.05,0,0,0.05,46.95,0)" xlink:href="#ak"/><use transform="matrix(0.05,0,0,0.05,56.95,0)" xlink:href="#ae"/><use transform="matrix(0.05,0,0,0.05,65.95,0)" xlink:href="#ac"/></g><path d="M160-131c35 5 61 23 61 61C221 17 115-2 30 0v-248c76 3 177-17 177 60 0 33-19 50-47 57zm-97-11c50-1 110 9 110-42 0-47-63-36-110-37v79zm0 115c55-2 124 14 124-45 0-56-70-42-124-44v89" id="au"/><path d="M85-194c31 0 48 13 60 33l-1-100h32l1 261h-30c-2-10 0-23-3-31C134-8 116 4 85 4 32 4 16-35 15-94c0-66 23-100 70-100zm9 24c-40 0-46 34-46 75 0 40 6 74 45 74 42 0 51-32 51-76 0-42-9-74-50-73" id="av"/><g id="q"><use transform="matrix(0.05,0,0,0.05,0,0)" xlink:href="#au"/><use transform="matrix(0.05,0,0,0.05,12,0)" xlink:href="#aa"/><use transform="matrix(0.05,0,0,0.05,22,0)" xlink:href="#ad"/><use transform="matrix(0.05,0,0,0.05,32,0)" xlink:href="#av"/></g><g id="r"><use transform="matrix(0.05,0,0,0.05,0,0)" xlink:href="#ah"/><use transform="matrix(0.05,0,0,0.05,10.950000000000001,0)" xlink:href="#ap"/><use transform="matrix(0.05,0,0,0.05,14.9,0)" xlink:href="#aa"/><use transform="matrix(0.05,0,0,0.05,24.900000000000002,0)" xlink:href="#ak"/><use transform="matrix(0.05,0,0,0.05,34.900000000000006,0)" xlink:href="#Y"/></g><g id="s"><use transform="matrix(0.05,0,0,0.05,0,0)" xlink:href="#af"/><use transform="matrix(0.05,0,0,0.05,5.95,0)" xlink:href="#ae"/><use transform="matrix(0.05,0,0,0.05,14.949999999999998,0)" xlink:href="#aa"/><use transform="matrix(0.05,0,0,0.05,24.95,0)" xlink:href="#an"/><use transform="matrix(0.05,0,0,0.05,34.95,0)" xlink:href="#ap"/><use transform="matrix(0.05,0,0,0.05,38.900000000000006,0)" xlink:href="#ae"/><use transform="matrix(0.05,0,0,0.05,47.900000000000006,0)" xlink:href="#ai"/></g><path d="M240 0l2-218c-23 76-54 145-80 218h-23L58-218 59 0H30v-248h44l77 211c21-75 51-140 76-211h43V0h-30" id="aw"/><g id="t"><use transform="matrix(0.05,0,0,0.05,0,0)" xlink:href="#aw"/><use transform="matrix(0.05,0,0,0.05,14.950000000000001,0)" xlink:href="#al"/><use transform="matrix(0.05,0,0,0.05,18.900000000000002,0)" xlink:href="#ad"/><use transform="matrix(0.05,0,0,0.05,28.900000000000002,0)" xlink:href="#Y"/></g><g id="u"><use transform="matrix(0.05,0,0,0.05,0,0)" xlink:href="#au"/><use transform="matrix(0.05,0,0,0.05,12,0)" xlink:href="#aa"/><use transform="matrix(0.05,0,0,0.05,22,0)" xlink:href="#ad"/><use transform="matrix(0.05,0,0,0.05,32,0)" xlink:href="#av"/></g><path d="M141 0L90-78 38 0H4l68-98-65-92h35l48 74 47-74h35l-64 92 68 98h-35" id="ax"/><g id="v"><use transform="matrix(0.05,0,0,0.05,0,0)" xlink:href="#Z"/><use transform="matrix(0.05,0,0,0.05,10.950000000000001,0)" xlink:href="#ax"/></g><path d="M266 0h-40l-56-210L115 0H75L2-248h35L96-30l15-64 43-154h32l59 218 59-218h35" id="ay"/><path d="M206 0h-36l-40-164L89 0H53L-1-190h32L70-26l43-164h34l41 164 42-164h31" id="az"/><g id="w"><use transform="matrix(0.05,0,0,0.05,0,0)" xlink:href="#ay"/><use transform="matrix(0.05,0,0,0.05,16.95,0)" xlink:href="#al"/><use transform="matrix(0.05,0,0,0.05,20.9,0)" xlink:href="#Y"/><use transform="matrix(0.05,0,0,0.05,25.899999999999995,0)" xlink:href="#at"/><use transform="matrix(0.05,0,0,0.05,35.9,0)" xlink:href="#av"/><use transform="matrix(0.05,0,0,0.05,45.9,0)" xlink:href="#X"/><use transform="matrix(0.05,0,0,0.05,51.85,0)" xlink:href="#ak"/><use transform="matrix(0.05,0,0,0.05,61.85,0)" xlink:href="#az"/></g><path d="M115-194c55 1 70 41 70 98S169 2 115 4C84 4 66-9 55-30l1 105H24l-1-265h31l2 30c10-21 28-34 59-34zm-8 174c40 0 45-34 45-75s-6-73-45-74c-42 0-51 32-51 76 0 43 10 73 51 73" id="aA"/><g id="x"><use transform="matrix(0.05,0,0,0.05,0,0)" xlink:href="#aA"/><use transform="matrix(0.05,0,0,0.05,10,0)" xlink:href="#an"/><use transform="matrix(0.05,0,0,0.05,20,0)" xlink:href="#X"/><use transform="matrix(0.05,0,0,0.05,25.950000000000003,0)" xlink:href="#as"/><use transform="matrix(0.05,0,0,0.05,34.95,0)" xlink:href="#at"/><use transform="matrix(0.05,0,0,0.05,44.95,0)" xlink:href="#ak"/><use transform="matrix(0.05,0,0,0.05,54.95,0)" xlink:href="#ae"/><use transform="matrix(0.05,0,0,0.05,63.95,0)" xlink:href="#ac"/></g><g id="y"><use transform="matrix(0.05,0,0,0.05,0,0)" xlink:href="#au"/><use transform="matrix(0.05,0,0,0.05,12,0)" xlink:href="#an"/><use transform="matrix(0.05,0,0,0.05,22,0)" xlink:href="#X"/><use transform="matrix(0.05,0,0,0.05,27.950000000000003,0)" xlink:href="#ad"/></g><g id="z"><use transform="matrix(0.05,0,0,0.05,0,0)" xlink:href="#ay"/><use transform="matrix(0.05,0,0,0.05,16.95,0)" xlink:href="#al"/><use transform="matrix(0.05,0,0,0.05,20.9,0)" xlink:href="#Y"/><use transform="matrix(0.05,0,0,0.05,25.899999999999995,0)" xlink:href="#at"/><use transform="matrix(0.05,0,0,0.05,35.9,0)" xlink:href="#av"/><use transform="matrix(0.05,0,0,0.05,45.9,0)" xlink:href="#X"/><use transform="matrix(0.05,0,0,0.05,51.85,0)" xlink:href="#ak"/><use transform="matrix(0.05,0,0,0.05,61.85,0)" xlink:href="#az"/></g><filter id="A" filterUnits="objectBoundingBox" x="-.06" y="-.01" width="1.13" height="1.06"><feOffset result="offOut" in="SourceAlpha" dy="3"/><feGaussianBlur result="blurOut" in="offOut" stdDeviation="2.5"/><feColorMatrix result="colorOut" in="blurOut" values="0 0 0 0 0 0 0 0 0 0 0 0 0 0 0 0 0 0 0.5019607843137255 0"/><feBlend in="SourceGraphic" in2="colorOut"/></filter><path d="M140-251c81 0 123 46 123 126C263-46 219 4 140 4 59 4 17-45 17-125s42-126 123-126zm0 227c63 0 89-41 89-101s-29-99-89-99c-61 0-89 39-89 99S79-25 140-24" id="aB"/><g id="B"><use transform="matrix(0.05,0,0,0.05,0,0)" xlink:href="#aB"/><use transform="matrix(0.05,0,0,0.05,14,0)" xlink:href="#aA"/><use transform="matrix(0.05,0,0,0.05,24,0)" xlink:href="#ac"/><use transform="matrix(0.05,0,0,0.05,34,0)" xlink:href="#X"/><use transform="matrix(0.05,0,0,0.05,39.95,0)" xlink:href="#ak"/><use transform="matrix(0.05,0,0,0.05,49.95,0)" xlink:href="#Y"/><use transform="matrix(0.05,0,0,0.05,54.95,0)" xlink:href="#al"/><use transform="matrix(0.05,0,0,0.05,58.900000000000006,0)" xlink:href="#aa"/><use transform="matrix(0.05,0,0,0.05,68.9,0)" xlink:href="#ad"/><use transform="matrix(0.05,0,0,0.05,78.9,0)" xlink:href="#ak"/><use transform="matrix(0.05,0,0,0.05,88.9,0)" xlink:href="#ap"/></g><path d="M212-179c-10-28-35-45-73-45-59 0-87 40-87 99 0 60 29 101 89 101 43 0 62-24 78-52l27 14C228-24 195 4 139 4 59 4 22-46 18-125c-6-104 99-153 187-111 19 9 31 26 39 46" id="aC"/><g id="C"><use transform="matrix(0.05,0,0,0.05,0,0)" xlink:href="#aC"/><use transform="matrix(0.05,0,0,0.05,12.950000000000001,0)" xlink:href="#aa"/><use transform="matrix(0.05,0,0,0.05,22.950000000000003,0)" xlink:href="#ae"/><use transform="matrix(0.05,0,0,0.05,31.950000000000003,0)" xlink:href="#Y"/><use transform="matrix(0.05,0,0,0.05,36.95,0)" xlink:href="#ae"/></g><g id="D"><use transform="matrix(0.05,0,0,0.05,0,0)" xlink:href="#au"/><use transform="matrix(0.05,0,0,0.05,12,0)" xlink:href="#aa"/><use transform="matrix(0.05,0,0,0.05,22,0)" xlink:href="#Y"/></g><g id="E"><use transform="matrix(0.05,0,0,0.05,0,0)" xlink:href="#W"/><use transform="matrix(0.05,0,0,0.05,12,0)" xlink:href="#as"/><use transform="matrix(0.05,0,0,0.05,21,0)" xlink:href="#Y"/><use transform="matrix(0.05,0,0,0.05,26,0)" xlink:href="#al"/><use transform="matrix(0.05,0,0,0.05,29.950000000000003,0)" xlink:href="#aa"/><use transform="matrix(0.05,0,0,0.05,39.95,0)" xlink:href="#ad"/><use transform="matrix(0.05,0,0,0.05,49.95,0)" xlink:href="#ae"/></g><filter id="F" filterUnits="objectBoundingBox" x="-.08" y="-.03" width="1.17" height="1.17"><feOffset result="offOut" in="SourceAlpha" dy="3"/><feGaussianBlur result="blurOut" in="offOut" stdDeviation="2.5"/><feColorMatrix result="colorOut" in="blurOut" values="0 0 0 0 0 0 0 0 0 0 0 0 0 0 0 0 0 0 0.5019607843137255 0"/><feBlend in="SourceGraphic" in2="colorOut"/></filter><filter id="G" filterUnits="objectBoundingBox" x="-.1" y="-.03" width="1.21" height="1.17"><feOffset result="offOut" in="SourceAlpha" dy="3"/><feGaussianBlur result="blurOut" in="offOut" stdDeviation="2.5"/><feColorMatrix result="colorOut" in="blurOut" values="0 0 0 0 0 0 0 0 0 0 0 0 0 0 0 0 0 0 0.5019607843137255 0"/><feBlend in="SourceGraphic" in2="colorOut"/></filter><filter id="H" filterUnits="objectBoundingBox" x="-.06" y="-.05" width="1.13" height="1.24"><feOffset result="offOut" in="SourceAlpha" dy="3"/><feGaussianBlur result="blurOut" in="offOut" stdDeviation="2.5"/><feColorMatrix result="colorOut" in="blurOut" values="0 0 0 0 0 0 0 0 0 0 0 0 0 0 0 0 0 0 0.5019607843137255 0"/><feBlend in="SourceGraphic" in2="colorOut"/></filter><filter id="I" filterUnits="objectBoundingBox" x="-.08" y="-.05" width="1.17" height="1.24"><feOffset result="offOut" in="SourceAlpha" dy="3"/><feGaussianBlur result="blurOut" in="offOut" stdDeviation="2.5"/><feColorMatrix result="colorOut" in="blurOut" values="0 0 0 0 0 0 0 0 0 0 0 0 0 0 0 0 0 0 0.5019607843137255 0"/><feBlend in="SourceGraphic" in2="colorOut"/></filter><path d="M232-93c-1 65-40 97-104 97C67 4 28-28 28-90v-158h33c8 89-33 224 67 224 102 0 64-133 71-224h33v155" id="aD"/><g id="K"><use transform="matrix(0.05,0,0,0.05,0,0)" xlink:href="#aD"/><use transform="matrix(0.05,0,0,0.05,12.950000000000001,0)" xlink:href="#ae"/><use transform="matrix(0.05,0,0,0.05,21.950000000000003,0)" xlink:href="#ac"/><use transform="matrix(0.05,0,0,0.05,31.950000000000003,0)" xlink:href="#X"/></g><g id="L"><use transform="matrix(0.05,0,0,0.05,0,0)" xlink:href="#W"/><use transform="matrix(0.05,0,0,0.05,12,0)" xlink:href="#as"/><use transform="matrix(0.05,0,0,0.05,21,0)" xlink:href="#Y"/><use transform="matrix(0.05,0,0,0.05,26,0)" xlink:href="#al"/><use transform="matrix(0.05,0,0,0.05,29.950000000000003,0)" xlink:href="#aa"/><use transform="matrix(0.05,0,0,0.05,39.95,0)" xlink:href="#ad"/></g><filter id="J" filterUnits="objectBoundingBox" x="-.02" y="-.03" width="1.04" height="1.17"><feOffset result="offOut" in="SourceAlpha" dy="3"/><feGaussianBlur result="blurOut" in="offOut" stdDeviation="2.5"/><feColorMatrix result="colorOut" in="blurOut" values="0 0 0 0 0 0 0 0 0 0 0 0 0 0 0 0 0 0 0.5019607843137255 0"/><feBlend in="SourceGraphic" in2="colorOut"/></filter><path d="M101-234c-31-9-42 10-38 44h38v23H63V0H32v-167H5v-23h27c-7-52 17-82 69-68v24" id="aE"/><path d="M177-190C167-65 218 103 67 71c-23-6-38-20-44-43l32-5c15 47 100 32 89-28v-30C133-14 115 1 83 1 29 1 15-40 15-95c0-56 16-97 71-98 29-1 48 16 59 35 1-10 0-23 2-32h30zM94-22c36 0 50-32 50-73 0-42-14-75-50-75-39 0-46 34-46 75s6 73 46 73" id="aF"/><path d="M115-194c53 0 69 39 70 98 0 66-23 100-70 100C84 3 66-7 56-30L54 0H23l1-261h32v101c10-23 28-34 59-34zm-8 174c40 0 45-34 45-75 0-40-5-75-45-74-42 0-51 32-51 76 0 43 10 73 51 73" id="aG"/><g id="M"><use transform="matrix(0.05,0,0,0.05,0,0)" xlink:href="#ag"/><use transform="matrix(0.05,0,0,0.05,12.950000000000001,0)" xlink:href="#aa"/><use transform="matrix(0.05,0,0,0.05,22.950000000000003,0)" xlink:href="#ad"/><use transform="matrix(0.05,0,0,0.05,32.95,0)" xlink:href="#aE"/><use transform="matrix(0.05,0,0,0.05,37.95,0)" xlink:href="#an"/><use transform="matrix(0.05,0,0,0.05,47.95,0)" xlink:href="#ad"/><use transform="matrix(0.05,0,0,0.05,57.95,0)" xlink:href="#aF"/><use transform="matrix(0.05,0,0,0.05,67.95,0)" xlink:href="#al"/><use transform="matrix(0.05,0,0,0.05,71.9,0)" xlink:href="#aG"/><use transform="matrix(0.05,0,0,0.05,81.9,0)" xlink:href="#ap"/><use transform="matrix(0.05,0,0,0.05,85.85000000000001,0)" xlink:href="#ac"/></g><g id="N"><use transform="matrix(0.05,0,0,0.05,0,0)" xlink:href="#W"/><use transform="matrix(0.05,0,0,0.05,12,0)" xlink:href="#ae"/><use transform="matrix(0.05,0,0,0.05,21,0)" xlink:href="#ae"/><use transform="matrix(0.05,0,0,0.05,30,0)" xlink:href="#ac"/><use transform="matrix(0.05,0,0,0.05,40,0)" xlink:href="#Y"/><use transform="matrix(0.05,0,0,0.05,45,0)" xlink:href="#ae"/></g><g id="O"><use transform="matrix(0.05,0,0,0.05,0,0)" xlink:href="#ah"/><use transform="matrix(0.05,0,0,0.05,10.950000000000001,0)" xlink:href="#an"/><use transform="matrix(0.05,0,0,0.05,20.950000000000003,0)" xlink:href="#ad"/><use transform="matrix(0.05,0,0,0.05,30.950000000000003,0)" xlink:href="#aF"/><use transform="matrix(0.05,0,0,0.05,40.95,0)" xlink:href="#al"/><use transform="matrix(0.05,0,0,0.05,44.900000000000006,0)" xlink:href="#aG"/><use transform="matrix(0.05,0,0,0.05,54.900000000000006,0)" xlink:href="#ap"/><use transform="matrix(0.05,0,0,0.05,58.85,0)" xlink:href="#ac"/></g><g id="P"><use transform="matrix(0.05,0,0,0.05,0,0)" xlink:href="#W"/><use transform="matrix(0.05,0,0,0.05,12,0)" xlink:href="#ae"/><use transform="matrix(0.05,0,0,0.05,21,0)" xlink:href="#ae"/><use transform="matrix(0.05,0,0,0.05,30,0)" xlink:href="#ac"/><use transform="matrix(0.05,0,0,0.05,40,0)" xlink:href="#Y"/><use transform="matrix(0.05,0,0,0.05,45,0)" xlink:href="#ae"/></g><path d="M108 0H70L1-190h34L89-25l56-165h34" id="aH"/><g id="Q"><use transform="matrix(0.05,0,0,0.05,0,0)" xlink:href="#aC"/><use transform="matrix(0.05,0,0,0.05,12.950000000000001,0)" xlink:href="#aa"/><use transform="matrix(0.05,0,0,0.05,22.950000000000003,0)" xlink:href="#ad"/><use transform="matrix(0.05,0,0,0.05,32.95,0)" xlink:href="#ae"/><use transform="matrix(0.05,0,0,0.05,41.95,0)" xlink:href="#ac"/><use transform="matrix(0.05,0,0,0.05,51.95,0)" xlink:href="#X"/><use transform="matrix(0.05,0,0,0.05,57.900000000000006,0)" xlink:href="#aH"/><use transform="matrix(0.05,0,0,0.05,66.9,0)" xlink:href="#ac"/><use transform="matrix(0.05,0,0,0.05,76.9,0)" xlink:href="#av"/></g><g id="R"><use transform="matrix(0.05,0,0,0.05,0,0)" xlink:href="#ah"/><use transform="matrix(0.05,0,0,0.05,10.950000000000001,0)" xlink:href="#ap"/><use transform="matrix(0.05,0,0,0.05,14.9,0)" xlink:href="#aa"/><use transform="matrix(0.05,0,0,0.05,24.900000000000002,0)" xlink:href="#az"/><use transform="matrix(0.05,0,0,0.05,37.85,0)" xlink:href="#ae"/></g><path d="M210-169c-67 3-38 105-44 169h-31v-121c0-29-5-50-35-48C34-165 62-65 56 0H25l-1-190h30c1 10-1 24 2 32 10-44 99-50 107 0 11-21 27-35 58-36 85-2 47 119 55 194h-31v-121c0-29-5-49-35-48" id="aI"/><g id="S"><use transform="matrix(0.05,0,0,0.05,0,0)" xlink:href="#W"/><use transform="matrix(0.05,0,0,0.05,12,0)" xlink:href="#an"/><use transform="matrix(0.05,0,0,0.05,22,0)" xlink:href="#Y"/><use transform="matrix(0.05,0,0,0.05,27,0)" xlink:href="#aa"/><use transform="matrix(0.05,0,0,0.05,37,0)" xlink:href="#aI"/><use transform="matrix(0.05,0,0,0.05,51.95,0)" xlink:href="#ak"/><use transform="matrix(0.05,0,0,0.05,61.95,0)" xlink:href="#Y"/><use transform="matrix(0.05,0,0,0.05,66.95,0)" xlink:href="#ac"/><use transform="matrix(0.05,0,0,0.05,76.95,0)" xlink:href="#av"/></g><g id="T"><use transform="matrix(0.05,0,0,0.05,0,0)" xlink:href="#aw"/><use transform="matrix(0.05,0,0,0.05,14.950000000000001,0)" xlink:href="#ac"/><use transform="matrix(0.05,0,0,0.05,24.950000000000003,0)" xlink:href="#as"/><use transform="matrix(0.05,0,0,0.05,33.95,0)" xlink:href="#at"/><use transform="matrix(0.05,0,0,0.05,43.95,0)" xlink:href="#ak"/><use transform="matrix(0.05,0,0,0.05,53.95,0)" xlink:href="#ad"/><use transform="matrix(0.05,0,0,0.05,63.95,0)" xlink:href="#al"/><use transform="matrix(0.05,0,0,0.05,67.9,0)" xlink:href="#ae"/><use transform="matrix(0.05,0,0,0.05,76.9,0)" xlink:href="#aI"/></g><g id="U"><use transform="matrix(0.05,0,0,0.05,0,0)" xlink:href="#aC"/><use transform="matrix(0.05,0,0,0.05,12.950000000000001,0)" xlink:href="#ak"/><use transform="matrix(0.05,0,0,0.05,22.950000000000003,0)" xlink:href="#an"/><use transform="matrix(0.05,0,0,0.05,32.95,0)" xlink:href="#ae"/><use transform="matrix(0.05,0,0,0.05,41.95,0)" xlink:href="#ak"/><use transform="matrix(0.05,0,0,0.05,51.95,0)" xlink:href="#ap"/></g><path d="M30-248c118-7 216 8 213 122C240-48 200 0 122 0H30v-248zM63-27c89 8 146-16 146-99s-60-101-146-95v194" id="aJ"/><path d="M179-190L93 31C79 59 56 82 12 73V49c39 6 53-20 64-50L1-190h34L92-34l54-156h33" id="aK"/><g id="V"><use transform="matrix(0.05,0,0,0.05,0,0)" xlink:href="#aJ"/><use transform="matrix(0.05,0,0,0.05,12.950000000000001,0)" xlink:href="#ac"/><use transform="matrix(0.05,0,0,0.05,22.950000000000003,0)" xlink:href="#aA"/><use transform="matrix(0.05,0,0,0.05,32.95,0)" xlink:href="#ac"/><use transform="matrix(0.05,0,0,0.05,42.95,0)" xlink:href="#ad"/><use transform="matrix(0.05,0,0,0.05,52.95,0)" xlink:href="#av"/><use transform="matrix(0.05,0,0,0.05,62.95,0)" xlink:href="#ac"/><use transform="matrix(0.05,0,0,0.05,72.95,0)" xlink:href="#ad"/><use transform="matrix(0.05,0,0,0.05,82.95,0)" xlink:href="#as"/><use transform="matrix(0.05,0,0,0.05,91.95,0)" xlink:href="#aK"/></g></defs></g></svg>