<svg xmlns="http://www.w3.org/2000/svg" xmlns:xlink="http://www.w3.org/1999/xlink" xmlns:lucid="lucid" width="1360" height="1760"><g transform="translate(0 0)" lucid:page-tab-id="0_0"><path d="M150 1250h220v-20l40 40-40 40v-20H150z" stroke="#000" stroke-width="2" fill="#ffeca9" transform="matrix(6.123233995736766e-17,1,-1,6.123233995736766e-17,1550,989.9999999999999)" filter="url(#a)"/><path d="M157.7 417.33h202.67V398.3l38.08 38.07-38.08 38.08V455.4H157.7z" stroke="#000" stroke-width="2" fill="#99d5ca" transform="matrix(6.123233995736766e-17,1,-1,6.123233995736766e-17,714.4467512495195,158.29142637447134)" filter="url(#b)"/><path d="M884 376h232v-20l40 40-40 40v-20H884z" stroke="#000" stroke-width="2" fill="#99d5ca" transform="matrix(6.123233995736766e-17,1,-1,6.123233995736766e-17,1416,-624)" filter="url(#c)"/><path d="M880 120h240v60H880z" stroke="#000" stroke-opacity="0" stroke-width="2" fill="#fff" fill-opacity="0"/><use xlink:href="#d" transform="matrix(1,0,0,1,885,125) translate(9.125 28.6)"/><use xlink:href="#e" transform="matrix(1,0,0,1,885,125) translate(37.075 28.6)"/><use xlink:href="#f" transform="matrix(1,0,0,1,885,125) translate(142.975 28.6)"/><g filter="url(#g)"><path d="M904 336c8.84 0 16 26.86 16 60s-7.16 60-16 60H776c-8.84 0-16-26.86-16-60s7.16-60 16-60z" stroke="#000" stroke-width="2" fill="#d1bcd2"/><path d="M904 456c-8.84 0-16-26.86-16-60s7.16-60 16-60" stroke="#000" stroke-width="2" fill="none"/><use xlink:href="#d" transform="matrix(1,0,0,1,760,336) translate(21.549999999999997 52.8)"/><use xlink:href="#h" transform="matrix(1,0,0,1,760,336) translate(49.5 52.8)"/><use xlink:href="#i" transform="matrix(1,0,0,1,760,336) translate(37.125 74.4)"/></g><path d="M920 376h220v-20l40 40-40 40v-20H920z" stroke="#000" stroke-width="2" fill="#d1bcd2" filter="url(#j)"/><g filter="url(#k)"><path d="M1020 336l60 60-60 60-60-60z" stroke="#000" stroke-width="2" fill="#ffbbb1"/><use xlink:href="#l" transform="matrix(1,0,0,1,960,336) translate(41.05 42)"/><use xlink:href="#m" transform="matrix(1,0,0,1,960,336) translate(22.025 63.6)"/><use xlink:href="#n" transform="matrix(1,0,0,1,960,336) translate(50.025 85.20000000000002)"/></g><g filter="url(#o)"><path d="M1195 426c-8.28 0-15-8.95-15-20 0-8.84 4.06-16.3 10.36-19.02C1190 361 1215 356 1225 366c5-15 30-10 30 5 15-5 30 15 20 40 10 20 0 45-20 35-5 13-25 13-30 0-10 10-30 5-30-20z" stroke="#000" stroke-width="2" fill="#d1bcd2"/><use xlink:href="#p" transform="matrix(1,0,0,1,1180,356) translate(6.575000000000003 42.8)"/><use xlink:href="#q" transform="matrix(1,0,0,1,1180,356) translate(26.575000000000003 42.8)"/><use xlink:href="#r" transform="matrix(1,0,0,1,1180,356) translate(18.025 64.4)"/></g><g filter="url(#s)"><path d="M985 236c-8.28 0-15-7.16-15-16 0-7.07 4.06-13.03 10.36-15.22C980 184 1005 180 1015 188c5-12 30-8 30 4 15-4 30 12 20 32 10 16 0 36-20 28-5 10.4-25 10.4-30 0-10 8-30 4-30-16z" stroke="#000" stroke-width="2" fill="#99d5ca"/><use xlink:href="#t" transform="matrix(1,0,0,1,970,180) translate(32.05 22)"/><use xlink:href="#u" transform="matrix(1,0,0,1,970,180) translate(16.575000000000003 43.6)"/><use xlink:href="#v" transform="matrix(1,0,0,1,970,180) translate(17.025 65.2)"/></g><g filter="url(#k)"><path d="M1080 640c0 6.63-26.86 12-60 12s-60-5.37-60-12v-96c0-6.63 26.86-12 60-12s60 5.37 60 12z" stroke="#000" stroke-width="2" fill="#99d5ca"/><path d="M1080 544c0 6.63-26.86 12-60 12s-60-5.37-60-12" stroke="#000" stroke-width="2" fill="none"/><use xlink:href="#w" transform="matrix(1,0,0,1,960,556) translate(42.025 40.8)"/><use xlink:href="#x" transform="matrix(1,0,0,1,960,556) translate(36.099999999999994 62.4)"/></g><path d="M160 412h220v-20l40 40-40 40v-20H160z" stroke="#000" stroke-width="2" fill="#d1bcd2" filter="url(#j)"/><g filter="url(#g)"><path d="M564 372c8.84 0 16 26.86 16 60s-7.16 60-16 60H436c-8.84 0-16-26.86-16-60s7.16-60 16-60z" stroke="#000" stroke-width="2" fill="#d1bcd2"/><path d="M564 492c-8.84 0-16-26.86-16-60s7.16-60 16-60" stroke="#000" stroke-width="2" fill="none"/><use xlink:href="#d" transform="matrix(1,0,0,1,420,372) translate(21.549999999999997 52.8)"/><use xlink:href="#h" transform="matrix(1,0,0,1,420,372) translate(49.5 52.8)"/><use xlink:href="#i" transform="matrix(1,0,0,1,420,372) translate(37.125 74.4)"/></g><g filter="url(#s)"><path d="M95 448c-8.28 0-15-7.16-15-16 0-7.07 4.06-13.03 10.36-15.22C90 396 115 392 125 400c5-12 30-8 30 4 15-4 30 12 20 32 10 16 0 36-20 28-5 10.4-25 10.4-30 0-10 8-30 4-30-16z" stroke="#000" stroke-width="2" fill="#d1bcd2"/><use xlink:href="#y" transform="matrix(1,0,0,1,80,392) translate(21.549999999999997 32.8)"/><use xlink:href="#z" transform="matrix(1,0,0,1,80,392) translate(19.575 54.4)"/></g><g filter="url(#A)"><path d="M220 392h120v80H220z" stroke="#000" stroke-width="2" fill="#c7e8ac"/><use xlink:href="#B" transform="matrix(1,0,0,1,220,392) translate(36.025 22)"/><use xlink:href="#C" transform="matrix(1,0,0,1,220,392) translate(15.549999999999997 43.6)"/><use xlink:href="#D" transform="matrix(1,0,0,1,220,392) translate(29.074999999999996 65.2)"/><use xlink:href="#E" transform="matrix(1,0,0,1,220,392) translate(65.025 65.2)"/></g><g filter="url(#k)"><path d="M340 304c0 6.63-26.86 12-60 12s-60-5.37-60-12v-96c0-6.63 26.86-12 60-12s60 5.37 60 12z" stroke="#000" stroke-width="2" fill="#99d5ca"/><path d="M340 208c0 6.63-26.86 12-60 12s-60-5.37-60-12" stroke="#000" stroke-width="2" fill="none"/><use xlink:href="#w" transform="matrix(1,0,0,1,220,220) translate(42.025 40.8)"/><use xlink:href="#x" transform="matrix(1,0,0,1,220,220) translate(36.099999999999994 62.4)"/></g><g filter="url(#F)"><path d="M240.8 622c-9.28 0-16.8-8.95-16.8-20 0-8.84 4.55-16.3 11.6-19.02C235.2 557 263.2 552 274.4 562c5.6-15 33.6-10 33.6 5 16.8-5 33.6 15 22.4 40 11.2 20 0 45-22.4 35-5.6 13-28 13-33.6 0-11.2 10-33.6 5-33.6-20z" stroke="#000" stroke-width="2" fill="#99d5ca"/><use xlink:href="#G" transform="matrix(1,0,0,1,224,552) translate(11.524999999999999 42.8)"/><use xlink:href="#H" transform="matrix(1,0,0,1,224,552) translate(45.525 42.8)"/><use xlink:href="#I" transform="matrix(1,0,0,1,224,552) translate(84.525 42.8)"/><use xlink:href="#J" transform="matrix(1,0,0,1,224,552) translate(12.024999999999999 64.4)"/><use xlink:href="#K" transform="matrix(1,0,0,1,224,552) translate(57.975 64.4)"/></g><path d="M140 120h240v60H140z" stroke="#000" stroke-opacity="0" stroke-width="2" fill="#fff" fill-opacity="0"/><use xlink:href="#d" transform="matrix(1,0,0,1,145,125) translate(56.574999999999996 17.799999999999997)"/><use xlink:href="#L" transform="matrix(1,0,0,1,145,125) translate(84.52499999999999 17.799999999999997)"/><use xlink:href="#M" transform="matrix(1,0,0,1,145,125) translate(23.099999999999994 39.4)"/><use xlink:href="#N" transform="matrix(1,0,0,1,145,125) translate(115.05 39.4)"/><g filter="url(#k)"><path d="M560 1308c0 6.63-26.86 12-60 12s-60-5.37-60-12v-96c0-6.63 26.86-12 60-12s60 5.37 60 12z" stroke="#000" stroke-width="2" fill="#99d5ca"/><path d="M560 1212c0 6.63-26.86 12-60 12s-60-5.37-60-12" stroke="#000" stroke-width="2" fill="none"/><use xlink:href="#w" transform="matrix(1,0,0,1,440,1224) translate(42.025 40.8)"/><use xlink:href="#x" transform="matrix(1,0,0,1,440,1224) translate(36.099999999999994 62.4)"/></g><path d="M180 1240h220v-20l40 40-40 40v-20H180z" stroke="#000" stroke-width="2" fill="#99d5ca" filter="url(#j)"/><g filter="url(#O)"><path d="M78 1280c-9.94 0-18-8.95-18-20 0-8.84 4.87-16.3 12.44-19.02C72 1215 102 1210 114 1220c6-15 36-10 36 5 18-5 36 15 24 40 12 20 0 45-24 35-6 13-30 13-36 0-12 10-36 5-36-20z" stroke="#000" stroke-width="2" fill="#99d5ca"/><use xlink:href="#P" transform="matrix(1,0,0,1,60,1210) translate(10.099999999999994 42.8)"/><use xlink:href="#Q" transform="matrix(1,0,0,1,60,1210) translate(56.949999999999996 42.8)"/><use xlink:href="#v" transform="matrix(1,0,0,1,60,1210) translate(27.025 64.4)"/></g><g filter="url(#k)"><path d="M280 1200l60 60-60 60-60-60z" stroke="#000" stroke-width="2" fill="#ffbbb1"/><use xlink:href="#l" transform="matrix(1,0,0,1,220,1200) translate(41.05 42)"/><use xlink:href="#R" transform="matrix(1,0,0,1,220,1200) translate(39 63.6)"/><use xlink:href="#n" transform="matrix(1,0,0,1,220,1200) translate(50.025 85.20000000000002)"/></g><g filter="url(#k)"><path d="M344 1508c0 6.63-26.86 12-60 12s-60-5.37-60-12v-96c0-6.63 26.86-12 60-12s60 5.37 60 12z" stroke="#000" stroke-width="2" fill="#ffeca9"/><path d="M344 1412c0 6.63-26.86 12-60 12s-60-5.37-60-12" stroke="#000" stroke-width="2" fill="none"/><use xlink:href="#S" transform="matrix(1,0,0,1,224,1424) translate(40.05 40.8)"/><use xlink:href="#T" transform="matrix(1,0,0,1,224,1424) translate(33.074999999999996 62.4)"/></g><g filter="url(#U)"><path d="M242.3 1130c-8.45 0-15.3-8.95-15.3-20 0-8.84 4.14-16.3 10.57-19.02C237.2 1065 262.7 1060 272.9 1070c5.1-15 30.6-10 30.6 5 15.3-5 30.6 15 20.4 40 10.2 20 0 45-20.4 35-5.1 13-25.5 13-30.6 0-10.2 10-30.6 5-30.6-20z" stroke="#000" stroke-width="2" fill="#ffeca9"/><use xlink:href="#V" transform="matrix(1,0,0,1,227,1060) translate(24.049999999999997 32)"/><use xlink:href="#W" transform="matrix(1,0,0,1,227,1060) translate(62.95 32)"/><use xlink:href="#Q" transform="matrix(1,0,0,1,227,1060) translate(24.525 53.6)"/><use xlink:href="#v" transform="matrix(1,0,0,1,227,1060) translate(18.025 75.2)"/></g><path d="M870 1250h220v-20l40 40-40 40v-20H870z" stroke="#000" stroke-width="2" fill="#ffeca9" transform="matrix(6.123233995736766e-17,1,-1,6.123233995736766e-17,2270,269.99999999999994)" filter="url(#a)"/><g filter="url(#k)"><path d="M900 1308c0 6.63-26.86 12-60 12s-60-5.37-60-12v-96c0-6.63 26.86-12 60-12s60 5.37 60 12z" stroke="#000" stroke-width="2" fill="#99d5ca"/><path d="M900 1212c0 6.63-26.86 12-60 12s-60-5.37-60-12" stroke="#000" stroke-width="2" fill="none"/><use xlink:href="#w" transform="matrix(1,0,0,1,780,1224) translate(42.025 40.8)"/><use xlink:href="#x" transform="matrix(1,0,0,1,780,1224) translate(36.099999999999994 62.4)"/></g><path d="M900 1240h220v-20l40 40-40 40v-20H900z" stroke="#000" stroke-width="2" fill="#99d5ca" filter="url(#j)"/><g filter="url(#O)"><path d="M1178 1280c-9.94 0-18-8.95-18-20 0-8.84 4.87-16.3 12.44-19.02C1172 1215 1202 1210 1214 1220c6-15 36-10 36 5 18-5 36 15 24 40 12 20 0 45-24 35-6 13-30 13-36 0-12 10-36 5-36-20z" stroke="#000" stroke-width="2" fill="#99d5ca"/><use xlink:href="#X" transform="matrix(1,0,0,1,1160,1210) translate(21.549999999999997 42.8)"/><use xlink:href="#Q" transform="matrix(1,0,0,1,1160,1210) translate(45.5 42.8)"/><use xlink:href="#v" transform="matrix(1,0,0,1,1160,1210) translate(27.025 64.4)"/></g><g filter="url(#k)"><path d="M1000 1200l60 60-60 60-60-60z" stroke="#000" stroke-width="2" fill="#ffbbb1"/><use xlink:href="#l" transform="matrix(1,0,0,1,940,1200) translate(41.05 42)"/><use xlink:href="#Y" transform="matrix(1,0,0,1,940,1200) translate(22.6 63.6)"/><use xlink:href="#n" transform="matrix(1,0,0,1,940,1200) translate(50.025 85.20000000000002)"/></g><g filter="url(#k)"><path d="M1060 1148c0 6.63-26.86 12-60 12s-60-5.37-60-12v-96c0-6.63 26.86-12 60-12s60 5.37 60 12z" stroke="#000" stroke-width="2" fill="#ffeca9"/><path d="M1060 1052c0 6.63-26.86 12-60 12s-60-5.37-60-12" stroke="#000" stroke-width="2" fill="none"/><use xlink:href="#S" transform="matrix(1,0,0,1,940,1064) translate(40.05 40.8)"/><use xlink:href="#T" transform="matrix(1,0,0,1,940,1064) translate(33.074999999999996 62.4)"/></g><g filter="url(#U)"><path d="M963.3 1470c-8.45 0-15.3-8.95-15.3-20 0-8.84 4.14-16.3 10.57-19.02C958.2 1405 983.7 1400 993.9 1410c5.1-15 30.6-10 30.6 5 15.3-5 30.6 15 20.4 40 10.2 20 0 45-20.4 35-5.1 13-25.5 13-30.6 0-10.2 10-30.6 5-30.6-20z" stroke="#000" stroke-width="2" fill="#ffeca9"/><use xlink:href="#Z" transform="matrix(1,0,0,1,948,1400) translate(12.575000000000003 32)"/><use xlink:href="#aa" transform="matrix(1,0,0,1,948,1400) translate(53.525000000000006 32)"/><use xlink:href="#Q" transform="matrix(1,0,0,1,948,1400) translate(24.525 53.6)"/><use xlink:href="#v" transform="matrix(1,0,0,1,948,1400) translate(18.025 75.2)"/></g><path d="M140 980h240v60H140z" stroke="#000" stroke-opacity="0" stroke-width="2" fill="#fff" fill-opacity="0"/><g><use xlink:href="#ab" transform="matrix(1,0,0,1,145,985) translate(33.599999999999994 28.6)"/><use xlink:href="#ac" transform="matrix(1,0,0,1,145,985) translate(104.55 28.6)"/></g><path d="M879 980h240v60H879z" stroke="#000" stroke-opacity="0" stroke-width="2" fill="#fff" fill-opacity="0"/><g><use xlink:href="#ad" transform="matrix(1,0,0,1,884,985) translate(22.19999999999999 28.6)"/><use xlink:href="#N" transform="matrix(1,0,0,1,884,985) translate(115.94999999999999 28.6)"/></g><defs><filter id="a" filterUnits="objectBoundingBox" x="-.06" y="-.01" width="1.13" height="1.04"><feOffset result="offOut" in="SourceAlpha" dy="3"/><feGaussianBlur result="blurOut" in="offOut" stdDeviation="2.5"/><feColorMatrix result="colorOut" in="blurOut" values="0 0 0 0 0 0 0 0 0 0 0 0 0 0 0 0 0 0 0.5019607843137255 0"/><feBlend in="SourceGraphic" in2="colorOut"/></filter><filter id="b" filterUnits="objectBoundingBox" x="-.07" y="-.01" width="1.13" height="1.04"><feOffset result="offOut" in="SourceAlpha" dy="3"/><feGaussianBlur result="blurOut" in="offOut" stdDeviation="2.5"/><feColorMatrix result="colorOut" in="blurOut" values="0 0 0 0 0 0 0 0 0 0 0 0 0 0 0 0 0 0 0.5019607843137255 0"/><feBlend in="SourceGraphic" in2="colorOut"/></filter><filter id="c" filterUnits="objectBoundingBox" x="-.06" y="-.01" width="1.13" height="1.04"><feOffset result="offOut" in="SourceAlpha" dy="3"/><feGaussianBlur result="blurOut" in="offOut" stdDeviation="2.5"/><feColorMatrix result="colorOut" in="blurOut" values="0 0 0 0 0 0 0 0 0 0 0 0 0 0 0 0 0 0 0.5019607843137255 0"/><feBlend in="SourceGraphic" in2="colorOut"/></filter><path d="M205 0l-28-72H64L36 0H1l101-248h38L239 0h-34zm-38-99l-47-123c-12 45-31 82-46 123h93" id="ae"/><path d="M114-163C36-179 61-72 57 0H25l-1-190h30c1 12-1 29 2 39 6-27 23-49 58-41v29" id="af"/><path d="M59-47c-2 24 18 29 38 22v24C64 9 27 4 27-40v-127H5v-23h24l9-43h21v43h35v23H59v120" id="ag"/><g id="d"><use transform="matrix(0.05,0,0,0.05,0,0)" xlink:href="#ae"/><use transform="matrix(0.05,0,0,0.05,12,0)" xlink:href="#af"/><use transform="matrix(0.05,0,0,0.05,17.95,0)" xlink:href="#ag"/></g><path d="M185-189c-5-48-123-54-124 2 14 75 158 14 163 119 3 78-121 87-175 55-17-10-28-26-33-46l33-7c5 56 141 63 141-1 0-78-155-14-162-118-5-82 145-84 179-34 5 7 8 16 11 25" id="ah"/><path d="M141-36C126-15 110 5 73 4 37 3 15-17 15-53c-1-64 63-63 125-63 3-35-9-54-41-54-24 1-41 7-42 31l-33-3c5-37 33-52 76-52 45 0 72 20 72 64v82c-1 20 7 32 28 27v20c-31 9-61-2-59-35zM48-53c0 20 12 33 32 33 41-3 63-29 60-74-43 2-92-5-92 41" id="ai"/><path d="M24 0v-261h32V0H24" id="aj"/><path d="M100-194c63 0 86 42 84 106H49c0 40 14 67 53 68 26 1 43-12 49-29l28 8c-11 28-37 45-77 45C44 4 14-33 15-96c1-61 26-98 85-98zm52 81c6-60-76-77-97-28-3 7-6 17-6 28h103" id="ak"/><path d="M0 4l72-265h28L28 4H0" id="al"/><path d="M84 4C-5 8 30-112 23-190h32v120c0 31 7 50 39 49 72-2 45-101 50-169h31l1 190h-30c-1-10 1-25-2-33-11 22-28 36-60 37" id="am"/><path d="M96-169c-40 0-48 33-48 73s9 75 48 75c24 0 41-14 43-38l32 2c-6 37-31 61-74 61-59 0-76-41-82-99-10-93 101-131 147-64 4 7 5 14 7 22l-32 3c-4-21-16-35-41-35" id="an"/><path d="M24-231v-30h32v30H24zM24 0v-190h32V0H24" id="ao"/><path d="M100-194c62-1 85 37 85 99 1 63-27 99-86 99S16-35 15-95c0-66 28-99 85-99zM99-20c44 1 53-31 53-75 0-43-8-75-51-75s-53 32-53 75 10 74 51 75" id="ap"/><path d="M117-194c89-4 53 116 60 194h-32v-121c0-31-8-49-39-48C34-167 62-67 57 0H25l-1-190h30c1 10-1 24 2 32 11-22 29-35 61-36" id="aq"/><g id="e"><use transform="matrix(0.05,0,0,0.05,0,0)" xlink:href="#ah"/><use transform="matrix(0.05,0,0,0.05,12,0)" xlink:href="#ai"/><use transform="matrix(0.05,0,0,0.05,22,0)" xlink:href="#aj"/><use transform="matrix(0.05,0,0,0.05,25.950000000000003,0)" xlink:href="#ak"/><use transform="matrix(0.05,0,0,0.05,35.95,0)" xlink:href="#al"/><use transform="matrix(0.05,0,0,0.05,40.95,0)" xlink:href="#ae"/><use transform="matrix(0.05,0,0,0.05,52.95,0)" xlink:href="#am"/><use transform="matrix(0.05,0,0,0.05,62.95,0)" xlink:href="#an"/><use transform="matrix(0.05,0,0,0.05,71.95,0)" xlink:href="#ag"/><use transform="matrix(0.05,0,0,0.05,76.95,0)" xlink:href="#ao"/><use transform="matrix(0.05,0,0,0.05,80.9,0)" xlink:href="#ap"/><use transform="matrix(0.05,0,0,0.05,90.9,0)" xlink:href="#aq"/></g><path d="M240 0l2-218c-23 76-54 145-80 218h-23L58-218 59 0H30v-248h44l77 211c21-75 51-140 76-211h43V0h-30" id="ar"/><path d="M106-169C34-169 62-67 57 0H25v-261h32l-1 103c12-21 28-36 61-36 89 0 53 116 60 194h-32v-121c2-32-8-49-39-48" id="as"/><path d="M135-143c-3-34-86-38-87 0 15 53 115 12 119 90S17 21 10-45l28-5c4 36 97 45 98 0-10-56-113-15-118-90-4-57 82-63 122-42 12 7 21 19 24 35" id="at"/><path d="M210-169c-67 3-38 105-44 169h-31v-121c0-29-5-50-35-48C34-165 62-65 56 0H25l-1-190h30c1 10-1 24 2 32 10-44 99-50 107 0 11-21 27-35 58-36 85-2 47 119 55 194h-31v-121c0-29-5-49-35-48" id="au"/><g id="f"><use transform="matrix(0.05,0,0,0.05,0,0)" xlink:href="#ar"/><use transform="matrix(0.05,0,0,0.05,14.950000000000001,0)" xlink:href="#ak"/><use transform="matrix(0.05,0,0,0.05,24.950000000000003,0)" xlink:href="#an"/><use transform="matrix(0.05,0,0,0.05,33.95,0)" xlink:href="#as"/><use transform="matrix(0.05,0,0,0.05,43.95,0)" xlink:href="#ai"/><use transform="matrix(0.05,0,0,0.05,53.95,0)" xlink:href="#at"/><use transform="matrix(0.05,0,0,0.05,62.95,0)" xlink:href="#au"/></g><path d="M127-220V0H93v-220H8v-28h204v28h-85" id="av"/><path d="M143 0L79-87 56-68V0H24v-261h32v163l83-92h37l-77 82L181 0h-38" id="aw"/><g id="h"><use transform="matrix(0.05,0,0,0.05,0,0)" xlink:href="#av"/><use transform="matrix(0.05,0,0,0.05,8.950000000000001,0)" xlink:href="#ap"/><use transform="matrix(0.05,0,0,0.05,18.950000000000003,0)" xlink:href="#aw"/><use transform="matrix(0.05,0,0,0.05,27.950000000000003,0)" xlink:href="#ak"/><use transform="matrix(0.05,0,0,0.05,37.95,0)" xlink:href="#aq"/><use transform="matrix(0.05,0,0,0.05,47.95,0)" xlink:href="#at"/></g><path d="M87 75C49 33 22-17 22-94c0-76 28-126 65-167h31c-38 41-64 92-64 168S80 34 118 75H87" id="ax"/><path d="M190 0L58-211 59 0H30v-248h39L202-35l-2-213h31V0h-41" id="ay"/><path d="M63-220v92h138v28H63V0H30v-248h175v28H63" id="az"/><path d="M33-261c38 41 65 92 65 168S71 34 33 75H2C39 34 66-17 66-93S39-220 2-261h31" id="aA"/><g id="i"><use transform="matrix(0.05,0,0,0.05,0,0)" xlink:href="#ax"/><use transform="matrix(0.05,0,0,0.05,5.95,0)" xlink:href="#ay"/><use transform="matrix(0.05,0,0,0.05,18.900000000000002,0)" xlink:href="#az"/><use transform="matrix(0.05,0,0,0.05,29.85,0)" xlink:href="#av"/><use transform="matrix(0.05,0,0,0.05,38.800000000000004,0)" xlink:href="#at"/><use transform="matrix(0.05,0,0,0.05,47.800000000000004,0)" xlink:href="#aA"/></g><filter id="g" filterUnits="objectBoundingBox" x="-.03" y="-.02" width="1.06" height="1.08"><feOffset result="offOut" in="SourceAlpha" dy="3"/><feGaussianBlur result="blurOut" in="offOut" stdDeviation="2.5"/><feColorMatrix result="colorOut" in="blurOut" values="0 0 0 0 0 0 0 0 0 0 0 0 0 0 0 0 0 0 0.5019607843137255 0"/><feBlend in="SourceGraphic" in2="colorOut"/></filter><filter id="j" filterUnits="objectBoundingBox" x="-.02" y="-.03" width="1.04" height="1.13"><feOffset result="offOut" in="SourceAlpha" dy="3"/><feGaussianBlur result="blurOut" in="offOut" stdDeviation="2.5"/><feColorMatrix result="colorOut" in="blurOut" values="0 0 0 0 0 0 0 0 0 0 0 0 0 0 0 0 0 0 0.5019607843137255 0"/><feBlend in="SourceGraphic" in2="colorOut"/></filter><path d="M232-93c-1 65-40 97-104 97C67 4 28-28 28-90v-158h33c8 89-33 224 67 224 102 0 64-133 71-224h33v155" id="aB"/><g id="l"><use transform="matrix(0.05,0,0,0.05,0,0)" xlink:href="#aB"/><use transform="matrix(0.05,0,0,0.05,12.950000000000001,0)" xlink:href="#at"/><use transform="matrix(0.05,0,0,0.05,21.950000000000003,0)" xlink:href="#ak"/><use transform="matrix(0.05,0,0,0.05,31.950000000000003,0)" xlink:href="#af"/></g><path d="M30-248c87 1 191-15 191 75 0 78-77 80-158 76V0H30v-248zm33 125c57 0 124 11 124-50 0-59-68-47-124-48v98" id="aC"/><g id="m"><use transform="matrix(0.05,0,0,0.05,0,0)" xlink:href="#aC"/><use transform="matrix(0.05,0,0,0.05,12,0)" xlink:href="#am"/><use transform="matrix(0.05,0,0,0.05,22,0)" xlink:href="#af"/><use transform="matrix(0.05,0,0,0.05,27.950000000000003,0)" xlink:href="#an"/><use transform="matrix(0.05,0,0,0.05,36.95,0)" xlink:href="#as"/><use transform="matrix(0.05,0,0,0.05,46.95,0)" xlink:href="#ai"/><use transform="matrix(0.05,0,0,0.05,56.95,0)" xlink:href="#at"/><use transform="matrix(0.05,0,0,0.05,65.95,0)" xlink:href="#ak"/></g><path d="M141 0L90-78 38 0H4l68-98-65-92h35l48 74 47-74h35l-64 92 68 98h-35" id="aD"/><g id="n"><use transform="matrix(0.05,0,0,0.05,0,0)" xlink:href="#av"/><use transform="matrix(0.05,0,0,0.05,10.950000000000001,0)" xlink:href="#aD"/></g><filter id="k" filterUnits="objectBoundingBox" x="-.04" y="-.02" width="1.08" height="1.08"><feOffset result="offOut" in="SourceAlpha" dy="3"/><feGaussianBlur result="blurOut" in="offOut" stdDeviation="2.5"/><feColorMatrix result="colorOut" in="blurOut" values="0 0 0 0 0 0 0 0 0 0 0 0 0 0 0 0 0 0 0.5019607843137255 0"/><feBlend in="SourceGraphic" in2="colorOut"/></filter><g id="p"><use transform="matrix(0.05,0,0,0.05,0,0)" xlink:href="#ag"/><use transform="matrix(0.05,0,0,0.05,5,0)" xlink:href="#ap"/></g><g id="q"><use transform="matrix(0.05,0,0,0.05,0,0)" xlink:href="#an"/><use transform="matrix(0.05,0,0,0.05,9,0)" xlink:href="#ap"/><use transform="matrix(0.05,0,0,0.05,19,0)" xlink:href="#aj"/><use transform="matrix(0.05,0,0,0.05,22.95,0)" xlink:href="#aj"/><use transform="matrix(0.05,0,0,0.05,26.899999999999995,0)" xlink:href="#ak"/><use transform="matrix(0.05,0,0,0.05,36.9,0)" xlink:href="#an"/><use transform="matrix(0.05,0,0,0.05,45.9,0)" xlink:href="#ag"/><use transform="matrix(0.05,0,0,0.05,50.9,0)" xlink:href="#ap"/><use transform="matrix(0.05,0,0,0.05,60.900000000000006,0)" xlink:href="#af"/></g><path d="M85-194c31 0 48 13 60 33l-1-100h32l1 261h-30c-2-10 0-23-3-31C134-8 116 4 85 4 32 4 16-35 15-94c0-66 23-100 70-100zm9 24c-40 0-46 34-46 75 0 40 6 74 45 74 42 0 51-32 51-76 0-42-9-74-50-73" id="aE"/><g id="r"><use transform="matrix(0.05,0,0,0.05,0,0)" xlink:href="#ai"/><use transform="matrix(0.05,0,0,0.05,10,0)" xlink:href="#aE"/><use transform="matrix(0.05,0,0,0.05,20,0)" xlink:href="#aE"/><use transform="matrix(0.05,0,0,0.05,30,0)" xlink:href="#af"/><use transform="matrix(0.05,0,0,0.05,35.95,0)" xlink:href="#ak"/><use transform="matrix(0.05,0,0,0.05,45.95,0)" xlink:href="#at"/><use transform="matrix(0.05,0,0,0.05,54.95,0)" xlink:href="#at"/></g><filter id="o" filterUnits="objectBoundingBox" x="-.05" y="-.02" width="1.1" height="1.1"><feOffset result="offOut" in="SourceAlpha" dy="3"/><feGaussianBlur result="blurOut" in="offOut" stdDeviation="2.5"/><feColorMatrix result="colorOut" in="blurOut" values="0 0 0 0 0 0 0 0 0 0 0 0 0 0 0 0 0 0 0.5019607843137255 0"/><feBlend in="SourceGraphic" in2="colorOut"/></filter><path d="M101-234c-31-9-42 10-38 44h38v23H63V0H32v-167H5v-23h27c-7-52 17-82 69-68v24" id="aF"/><g id="t"><use transform="matrix(0.05,0,0,0.05,0,0)" xlink:href="#aF"/><use transform="matrix(0.05,0,0,0.05,5,0)" xlink:href="#af"/><use transform="matrix(0.05,0,0,0.05,10.95,0)" xlink:href="#ap"/><use transform="matrix(0.05,0,0,0.05,20.95,0)" xlink:href="#au"/></g><g id="u"><use transform="matrix(0.05,0,0,0.05,0,0)" xlink:href="#an"/><use transform="matrix(0.05,0,0,0.05,9,0)" xlink:href="#ap"/><use transform="matrix(0.05,0,0,0.05,19,0)" xlink:href="#aj"/><use transform="matrix(0.05,0,0,0.05,22.95,0)" xlink:href="#aj"/><use transform="matrix(0.05,0,0,0.05,26.899999999999995,0)" xlink:href="#ak"/><use transform="matrix(0.05,0,0,0.05,36.9,0)" xlink:href="#an"/><use transform="matrix(0.05,0,0,0.05,45.9,0)" xlink:href="#ag"/><use transform="matrix(0.05,0,0,0.05,50.9,0)" xlink:href="#ap"/><use transform="matrix(0.05,0,0,0.05,60.900000000000006,0)" xlink:href="#af"/></g><g id="v"><use transform="matrix(0.05,0,0,0.05,0,0)" xlink:href="#ae"/><use transform="matrix(0.05,0,0,0.05,12,0)" xlink:href="#aE"/><use transform="matrix(0.05,0,0,0.05,22,0)" xlink:href="#aE"/><use transform="matrix(0.05,0,0,0.05,32,0)" xlink:href="#af"/><use transform="matrix(0.05,0,0,0.05,37.95,0)" xlink:href="#ak"/><use transform="matrix(0.05,0,0,0.05,47.95,0)" xlink:href="#at"/><use transform="matrix(0.05,0,0,0.05,56.95,0)" xlink:href="#at"/></g><filter id="s" filterUnits="objectBoundingBox" x="-.05" y="-.03" width="1.1" height="1.13"><feOffset result="offOut" in="SourceAlpha" dy="3"/><feGaussianBlur result="blurOut" in="offOut" stdDeviation="2.5"/><feColorMatrix result="colorOut" in="blurOut" values="0 0 0 0 0 0 0 0 0 0 0 0 0 0 0 0 0 0 0.5019607843137255 0"/><feBlend in="SourceGraphic" in2="colorOut"/></filter><g id="w"><use transform="matrix(0.05,0,0,0.05,0,0)" xlink:href="#aC"/><use transform="matrix(0.05,0,0,0.05,12,0)" xlink:href="#ap"/><use transform="matrix(0.05,0,0,0.05,22,0)" xlink:href="#ap"/><use transform="matrix(0.05,0,0,0.05,32,0)" xlink:href="#aj"/></g><path d="M30 0v-248h187v28H63v79h144v27H63v87h162V0H30" id="aG"/><path d="M197 0v-115H63V0H30v-248h33v105h134v-105h34V0h-34" id="aH"/><g id="x"><use transform="matrix(0.05,0,0,0.05,0,0)" xlink:href="#ax"/><use transform="matrix(0.05,0,0,0.05,5.95,0)" xlink:href="#aG"/><use transform="matrix(0.05,0,0,0.05,17.95,0)" xlink:href="#av"/><use transform="matrix(0.05,0,0,0.05,28.899999999999995,0)" xlink:href="#aH"/><use transform="matrix(0.05,0,0,0.05,41.85,0)" xlink:href="#aA"/></g><path d="M145-31C134-9 116 4 85 4 32 4 16-35 15-94c0-59 17-99 70-100 32-1 48 14 60 33 0-11-1-24 2-32h30l-1 268h-32zM93-21c41 0 51-33 51-76s-8-73-50-73c-40 0-46 35-46 75s5 74 45 74" id="aI"/><g id="y"><use transform="matrix(0.05,0,0,0.05,0,0)" xlink:href="#aB"/><use transform="matrix(0.05,0,0,0.05,12.950000000000001,0)" xlink:href="#aq"/><use transform="matrix(0.05,0,0,0.05,22.950000000000003,0)" xlink:href="#ao"/><use transform="matrix(0.05,0,0,0.05,26.900000000000002,0)" xlink:href="#aI"/><use transform="matrix(0.05,0,0,0.05,36.900000000000006,0)" xlink:href="#am"/><use transform="matrix(0.05,0,0,0.05,46.900000000000006,0)" xlink:href="#ak"/></g><path d="M206 0h-36l-40-164L89 0H53L-1-190h32L70-26l43-164h34l41 164 42-164h31" id="aJ"/><g id="z"><use transform="matrix(0.05,0,0,0.05,0,0)" xlink:href="#ae"/><use transform="matrix(0.05,0,0,0.05,12,0)" xlink:href="#af"/><use transform="matrix(0.05,0,0,0.05,17.95,0)" xlink:href="#ag"/><use transform="matrix(0.05,0,0,0.05,22.95,0)" xlink:href="#aJ"/><use transform="matrix(0.05,0,0,0.05,35.9,0)" xlink:href="#ap"/><use transform="matrix(0.05,0,0,0.05,45.9,0)" xlink:href="#af"/><use transform="matrix(0.05,0,0,0.05,51.85,0)" xlink:href="#aw"/></g><g id="B"><use transform="matrix(0.05,0,0,0.05,0,0)" xlink:href="#av"/><use transform="matrix(0.05,0,0,0.05,8.950000000000001,0)" xlink:href="#ap"/><use transform="matrix(0.05,0,0,0.05,18.950000000000003,0)" xlink:href="#aw"/><use transform="matrix(0.05,0,0,0.05,27.950000000000003,0)" xlink:href="#ak"/><use transform="matrix(0.05,0,0,0.05,37.95,0)" xlink:href="#aq"/></g><path d="M143 4C61 4 22-44 18-125c-5-107 100-154 193-111 17 8 29 25 37 43l-32 9c-13-25-37-40-76-40-61 0-88 39-88 99 0 61 29 100 91 101 35 0 62-11 79-27v-45h-74v-28h105v86C228-13 192 4 143 4" id="aK"/><g id="C"><use transform="matrix(0.05,0,0,0.05,0,0)" xlink:href="#aK"/><use transform="matrix(0.05,0,0,0.05,14,0)" xlink:href="#ak"/><use transform="matrix(0.05,0,0,0.05,24,0)" xlink:href="#aq"/><use transform="matrix(0.05,0,0,0.05,34,0)" xlink:href="#ak"/><use transform="matrix(0.05,0,0,0.05,44,0)" xlink:href="#af"/><use transform="matrix(0.05,0,0,0.05,49.95,0)" xlink:href="#ai"/><use transform="matrix(0.05,0,0,0.05,59.95,0)" xlink:href="#ag"/><use transform="matrix(0.05,0,0,0.05,64.95,0)" xlink:href="#ao"/><use transform="matrix(0.05,0,0,0.05,68.9,0)" xlink:href="#ap"/><use transform="matrix(0.05,0,0,0.05,78.9,0)" xlink:href="#aq"/></g><path d="M115-194c53 0 69 39 70 98 0 66-23 100-70 100C84 3 66-7 56-30L54 0H23l1-261h32v101c10-23 28-34 59-34zm-8 174c40 0 45-34 45-75 0-40-5-75-45-74-42 0-51 32-51 76 0 43 10 73 51 73" id="aL"/><g id="D"><use transform="matrix(0.05,0,0,0.05,0,0)" xlink:href="#ax"/><use transform="matrix(0.05,0,0,0.05,5.95,0)" xlink:href="#aL"/><use transform="matrix(0.05,0,0,0.05,15.949999999999998,0)" xlink:href="#ap"/><use transform="matrix(0.05,0,0,0.05,25.950000000000003,0)" xlink:href="#ag"/></g><g id="E"><use transform="matrix(0.05,0,0,0.05,0,0)" xlink:href="#av"/><use transform="matrix(0.05,0,0,0.05,10.950000000000001,0)" xlink:href="#aD"/><use transform="matrix(0.05,0,0,0.05,19.950000000000003,0)" xlink:href="#aA"/></g><filter id="A" filterUnits="objectBoundingBox" x="-.04" y="-.03" width="1.08" height="1.13"><feOffset result="offOut" in="SourceAlpha" dy="3"/><feGaussianBlur result="blurOut" in="offOut" stdDeviation="2.5"/><feColorMatrix result="colorOut" in="blurOut" values="0 0 0 0 0 0 0 0 0 0 0 0 0 0 0 0 0 0 0.5019607843137255 0"/><feBlend in="SourceGraphic" in2="colorOut"/></filter><path d="M177-190C167-65 218 103 67 71c-23-6-38-20-44-43l32-5c15 47 100 32 89-28v-30C133-14 115 1 83 1 29 1 15-40 15-95c0-56 16-97 71-98 29-1 48 16 59 35 1-10 0-23 2-32h30zM94-22c36 0 50-32 50-73 0-42-14-75-50-75-39 0-46 34-46 75s6 73 46 73" id="aM"/><g id="G"><use transform="matrix(0.05,0,0,0.05,0,0)" xlink:href="#aM"/><use transform="matrix(0.05,0,0,0.05,10,0)" xlink:href="#ai"/><use transform="matrix(0.05,0,0,0.05,20,0)" xlink:href="#at"/></g><g id="H"><use transform="matrix(0.05,0,0,0.05,0,0)" xlink:href="#aF"/><use transform="matrix(0.05,0,0,0.05,5,0)" xlink:href="#ak"/><use transform="matrix(0.05,0,0,0.05,15,0)" xlink:href="#ak"/><use transform="matrix(0.05,0,0,0.05,25,0)" xlink:href="#at"/></g><g id="I"><use transform="matrix(0.05,0,0,0.05,0,0)" xlink:href="#ap"/><use transform="matrix(0.05,0,0,0.05,10,0)" xlink:href="#af"/></g><g id="J"><use transform="matrix(0.05,0,0,0.05,0,0)" xlink:href="#ap"/><use transform="matrix(0.05,0,0,0.05,10,0)" xlink:href="#ag"/><use transform="matrix(0.05,0,0,0.05,15,0)" xlink:href="#as"/><use transform="matrix(0.05,0,0,0.05,25,0)" xlink:href="#ak"/><use transform="matrix(0.05,0,0,0.05,35,0)" xlink:href="#af"/></g><g id="K"><use transform="matrix(0.05,0,0,0.05,0,0)" xlink:href="#an"/><use transform="matrix(0.05,0,0,0.05,9,0)" xlink:href="#ap"/><use transform="matrix(0.05,0,0,0.05,19,0)" xlink:href="#at"/><use transform="matrix(0.05,0,0,0.05,28,0)" xlink:href="#ag"/><use transform="matrix(0.05,0,0,0.05,33,0)" xlink:href="#at"/></g><filter id="F" filterUnits="objectBoundingBox" x="-.04" y="-.02" width="1.09" height="1.1"><feOffset result="offOut" in="SourceAlpha" dy="3"/><feGaussianBlur result="blurOut" in="offOut" stdDeviation="2.5"/><feColorMatrix result="colorOut" in="blurOut" values="0 0 0 0 0 0 0 0 0 0 0 0 0 0 0 0 0 0 0.5019607843137255 0"/><feBlend in="SourceGraphic" in2="colorOut"/></filter><g id="L"><use transform="matrix(0.05,0,0,0.05,0,0)" xlink:href="#aK"/><use transform="matrix(0.05,0,0,0.05,14,0)" xlink:href="#ak"/><use transform="matrix(0.05,0,0,0.05,24,0)" xlink:href="#aq"/><use transform="matrix(0.05,0,0,0.05,34,0)" xlink:href="#ak"/><use transform="matrix(0.05,0,0,0.05,44,0)" xlink:href="#af"/><use transform="matrix(0.05,0,0,0.05,49.95,0)" xlink:href="#ai"/><use transform="matrix(0.05,0,0,0.05,59.95,0)" xlink:href="#ag"/><use transform="matrix(0.05,0,0,0.05,64.95,0)" xlink:href="#ao"/><use transform="matrix(0.05,0,0,0.05,68.9,0)" xlink:href="#ap"/><use transform="matrix(0.05,0,0,0.05,78.9,0)" xlink:href="#aq"/></g><g id="M"><use transform="matrix(0.05,0,0,0.05,0,0)" xlink:href="#ae"/><use transform="matrix(0.05,0,0,0.05,12,0)" xlink:href="#am"/><use transform="matrix(0.05,0,0,0.05,22,0)" xlink:href="#ag"/><use transform="matrix(0.05,0,0,0.05,27,0)" xlink:href="#ap"/><use transform="matrix(0.05,0,0,0.05,37,0)" xlink:href="#au"/><use transform="matrix(0.05,0,0,0.05,51.95,0)" xlink:href="#ai"/><use transform="matrix(0.05,0,0,0.05,61.95,0)" xlink:href="#ag"/><use transform="matrix(0.05,0,0,0.05,66.95,0)" xlink:href="#ak"/><use transform="matrix(0.05,0,0,0.05,76.95,0)" xlink:href="#aE"/></g><g id="N"><use transform="matrix(0.05,0,0,0.05,0,0)" xlink:href="#ar"/><use transform="matrix(0.05,0,0,0.05,14.950000000000001,0)" xlink:href="#ak"/><use transform="matrix(0.05,0,0,0.05,24.950000000000003,0)" xlink:href="#an"/><use transform="matrix(0.05,0,0,0.05,33.95,0)" xlink:href="#as"/><use transform="matrix(0.05,0,0,0.05,43.95,0)" xlink:href="#ai"/><use transform="matrix(0.05,0,0,0.05,53.95,0)" xlink:href="#aq"/><use transform="matrix(0.05,0,0,0.05,63.95,0)" xlink:href="#ao"/><use transform="matrix(0.05,0,0,0.05,67.9,0)" xlink:href="#at"/><use transform="matrix(0.05,0,0,0.05,76.9,0)" xlink:href="#au"/></g><g id="P"><use transform="matrix(0.05,0,0,0.05,0,0)" xlink:href="#az"/><use transform="matrix(0.05,0,0,0.05,10.950000000000001,0)" xlink:href="#af"/><use transform="matrix(0.05,0,0,0.05,16.900000000000002,0)" xlink:href="#ap"/><use transform="matrix(0.05,0,0,0.05,26.900000000000002,0)" xlink:href="#au"/></g><g id="Q"><use transform="matrix(0.05,0,0,0.05,0,0)" xlink:href="#aC"/><use transform="matrix(0.05,0,0,0.05,12,0)" xlink:href="#ai"/><use transform="matrix(0.05,0,0,0.05,22,0)" xlink:href="#ag"/><use transform="matrix(0.05,0,0,0.05,27,0)" xlink:href="#af"/><use transform="matrix(0.05,0,0,0.05,32.95,0)" xlink:href="#ap"/><use transform="matrix(0.05,0,0,0.05,42.95,0)" xlink:href="#aq"/></g><filter id="O" filterUnits="objectBoundingBox" x="-.04" y="-.02" width="1.08" height="1.1"><feOffset result="offOut" in="SourceAlpha" dy="3"/><feGaussianBlur result="blurOut" in="offOut" stdDeviation="2.5"/><feColorMatrix result="colorOut" in="blurOut" values="0 0 0 0 0 0 0 0 0 0 0 0 0 0 0 0 0 0 0.5019607843137255 0"/><feBlend in="SourceGraphic" in2="colorOut"/></filter><path d="M160-131c35 5 61 23 61 61C221 17 115-2 30 0v-248c76 3 177-17 177 60 0 33-19 50-47 57zm-97-11c50-1 110 9 110-42 0-47-63-36-110-37v79zm0 115c55-2 124 14 124-45 0-56-70-42-124-44v89" id="aN"/><g id="R"><use transform="matrix(0.05,0,0,0.05,0,0)" xlink:href="#aN"/><use transform="matrix(0.05,0,0,0.05,12,0)" xlink:href="#ap"/><use transform="matrix(0.05,0,0,0.05,22,0)" xlink:href="#aq"/><use transform="matrix(0.05,0,0,0.05,32,0)" xlink:href="#aE"/></g><g id="S"><use transform="matrix(0.05,0,0,0.05,0,0)" xlink:href="#az"/><use transform="matrix(0.05,0,0,0.05,10.950000000000001,0)" xlink:href="#aj"/><use transform="matrix(0.05,0,0,0.05,14.9,0)" xlink:href="#ap"/><use transform="matrix(0.05,0,0,0.05,24.900000000000002,0)" xlink:href="#ai"/><use transform="matrix(0.05,0,0,0.05,34.900000000000006,0)" xlink:href="#ag"/></g><g id="T"><use transform="matrix(0.05,0,0,0.05,0,0)" xlink:href="#ax"/><use transform="matrix(0.05,0,0,0.05,5.95,0)" xlink:href="#at"/><use transform="matrix(0.05,0,0,0.05,14.949999999999998,0)" xlink:href="#ap"/><use transform="matrix(0.05,0,0,0.05,24.95,0)" xlink:href="#am"/><use transform="matrix(0.05,0,0,0.05,34.95,0)" xlink:href="#aj"/><use transform="matrix(0.05,0,0,0.05,38.900000000000006,0)" xlink:href="#at"/><use transform="matrix(0.05,0,0,0.05,47.900000000000006,0)" xlink:href="#aA"/></g><g id="V"><use transform="matrix(0.05,0,0,0.05,0,0)" xlink:href="#au"/><use transform="matrix(0.05,0,0,0.05,14.950000000000001,0)" xlink:href="#ao"/><use transform="matrix(0.05,0,0,0.05,18.900000000000002,0)" xlink:href="#aq"/><use transform="matrix(0.05,0,0,0.05,28.900000000000002,0)" xlink:href="#ag"/></g><g id="W"><use transform="matrix(0.05,0,0,0.05,0,0)" xlink:href="#ag"/><use transform="matrix(0.05,0,0,0.05,5,0)" xlink:href="#ap"/></g><filter id="U" filterUnits="objectBoundingBox" x="-.05" y="-.02" width="1.1" height="1.1"><feOffset result="offOut" in="SourceAlpha" dy="3"/><feGaussianBlur result="blurOut" in="offOut" stdDeviation="2.5"/><feColorMatrix result="colorOut" in="blurOut" values="0 0 0 0 0 0 0 0 0 0 0 0 0 0 0 0 0 0 0.5019607843137255 0"/><feBlend in="SourceGraphic" in2="colorOut"/></filter><g id="X"><use transform="matrix(0.05,0,0,0.05,0,0)" xlink:href="#av"/><use transform="matrix(0.05,0,0,0.05,8.950000000000001,0)" xlink:href="#ap"/></g><path d="M266 0h-40l-56-210L115 0H75L2-248h35L96-30l15-64 43-154h32l59 218 59-218h35" id="aO"/><g id="Y"><use transform="matrix(0.05,0,0,0.05,0,0)" xlink:href="#aO"/><use transform="matrix(0.05,0,0,0.05,16.95,0)" xlink:href="#ao"/><use transform="matrix(0.05,0,0,0.05,20.9,0)" xlink:href="#ag"/><use transform="matrix(0.05,0,0,0.05,25.899999999999995,0)" xlink:href="#as"/><use transform="matrix(0.05,0,0,0.05,35.9,0)" xlink:href="#aE"/><use transform="matrix(0.05,0,0,0.05,45.9,0)" xlink:href="#af"/><use transform="matrix(0.05,0,0,0.05,51.85,0)" xlink:href="#ai"/><use transform="matrix(0.05,0,0,0.05,61.85,0)" xlink:href="#aJ"/></g><g id="Z"><use transform="matrix(0.05,0,0,0.05,0,0)" xlink:href="#aL"/><use transform="matrix(0.05,0,0,0.05,10,0)" xlink:href="#am"/><use transform="matrix(0.05,0,0,0.05,20,0)" xlink:href="#af"/><use transform="matrix(0.05,0,0,0.05,25.950000000000003,0)" xlink:href="#aq"/></g><g id="aa"><use transform="matrix(0.05,0,0,0.05,0,0)" xlink:href="#aF"/><use transform="matrix(0.05,0,0,0.05,5,0)" xlink:href="#af"/><use transform="matrix(0.05,0,0,0.05,10.95,0)" xlink:href="#ap"/><use transform="matrix(0.05,0,0,0.05,20.95,0)" xlink:href="#au"/></g><g id="ab"><use transform="matrix(0.05,0,0,0.05,0,0)" xlink:href="#aN"/><use transform="matrix(0.05,0,0,0.05,12,0)" xlink:href="#ap"/><use transform="matrix(0.05,0,0,0.05,22,0)" xlink:href="#aq"/><use transform="matrix(0.05,0,0,0.05,32,0)" xlink:href="#aE"/><use transform="matrix(0.05,0,0,0.05,42,0)" xlink:href="#ao"/><use transform="matrix(0.05,0,0,0.05,45.95,0)" xlink:href="#aq"/><use transform="matrix(0.05,0,0,0.05,55.95,0)" xlink:href="#aM"/></g><g id="ac"><use transform="matrix(0.05,0,0,0.05,0,0)" xlink:href="#ar"/><use transform="matrix(0.05,0,0,0.05,14.950000000000001,0)" xlink:href="#ak"/><use transform="matrix(0.05,0,0,0.05,24.950000000000003,0)" xlink:href="#an"/><use transform="matrix(0.05,0,0,0.05,33.95,0)" xlink:href="#as"/><use transform="matrix(0.05,0,0,0.05,43.95,0)" xlink:href="#ai"/><use transform="matrix(0.05,0,0,0.05,53.95,0)" xlink:href="#aq"/><use transform="matrix(0.05,0,0,0.05,63.95,0)" xlink:href="#at"/><use transform="matrix(0.05,0,0,0.05,72.95,0)" xlink:href="#ao"/><use transform="matrix(0.05,0,0,0.05,76.9,0)" xlink:href="#au"/></g><g id="ad"><use transform="matrix(0.05,0,0,0.05,0,0)" xlink:href="#aO"/><use transform="matrix(0.05,0,0,0.05,16.95,0)" xlink:href="#ao"/><use transform="matrix(0.05,0,0,0.05,20.9,0)" xlink:href="#ag"/><use transform="matrix(0.05,0,0,0.05,25.899999999999995,0)" xlink:href="#as"/><use transform="matrix(0.05,0,0,0.05,35.9,0)" xlink:href="#aE"/><use transform="matrix(0.05,0,0,0.05,45.9,0)" xlink:href="#af"/><use transform="matrix(0.05,0,0,0.05,51.85,0)" xlink:href="#ai"/><use transform="matrix(0.05,0,0,0.05,61.85,0)" xlink:href="#aJ"/><use transform="matrix(0.05,0,0,0.05,74.8,0)" xlink:href="#ai"/><use transform="matrix(0.05,0,0,0.05,84.8,0)" xlink:href="#aj"/></g></defs></g></svg>